<svg xmlns="http://www.w3.org/2000/svg" width="89" height="120" fill="none"><path fill="#E6C067" d="M19.681 37.822c-.056-1.044-.777-1.567-1.46-1.992-1.199-.746-2.049-1.838-3.062-2.766-.47-.43-.659-1.02-1.087-1.636.44.128.665.275.867.474 4.774 4.694 10.08 5.137 16.87 5.533 3.516.206 6.117-2.514 7.054-5.267 1.06-3.113-2.376-6.347-2.018-10.72.037-.452.295-.887.571-1.303.324 3.87.713 3.652 2.17 7.198 2.507 6.107-.222 6.857-1.304 9.253-.295.655.002.963.71 1.065 2.565.373 4.228-1.1 5.898-2.695 4.446-4.249 2.268-9.475 4.132-14.457.24-.64.664-.917 1.306-1.198-2.81 5.986 2.166 9.476-4.038 16.534-.284.323-.244.637-.123.956.135.357.474.267.744.212 5.881-1.21 5.65-1.326 10.666-4.86 1.632-1.15 2.522-2.855 3.16-4.723.55-1.613 1.375-3.13 1.727-4.814.367-1.76.061-1.436.85-4.434 1.765 3.175-3.533 12.255.245 11.164 7.308-2.11 7.243-3.15 7.87-3.018.047.335-.141.529-.371.712-1.168.93-2.409 1.748-3.782 2.336-6.437 2.755-8.95 5.16-10.888 6.204-1.12.604-1.09 2.274.259 2.777 6.18 2.303 11.586 1.167 12.627 1.728-.582.62-1.37.676-2.113.76-5.274.602-10.415.004-15.318-2.038-1.257-.524-2.353-.297-3.515-.079-1.514.284-8.166.807-14.075.622-4.986-.157-5.68-.769-6.05-.51-.286.52 1.27.995.009 1.48.553.69 1.027.746 1.866.343 3.53-1.699 6.97.078 9.232-.283.125.182.046.328-.07.394-1.982 1.116-1.754 3.8-7.04 2.883-.017-.003-.038.012-.135.048 1.051 1.582 1.41 5.655 4.262 5.347-.852.907-1.924 1.227-3.157 1.18-.033.425.211.725.34 1.049 1.15 2.882 1.544 5.153 4.524 5.002-.581.766-1.273 1.272-2.162 1.503 1.185 2.041 4.193 4.033 6.532 1.412.155.3-.079.485-.181.712-1.432 3.188-4.338 2.234-5.902 3.182-.153.093-.317.192-.363.517 1.492.093 1.415 1.668 2.264 2.434.37.334.637.786 1.133 1.028-1.296.505-1.557.684-4.444-.388.054.116.07.231.135.278 1.882 1.344 1.067 4.203 2.142 5.486.126.15.198.36.594.351-1.08-1.665-.792-3.724-1.985-5.499.773.363 1.458.46 2.155.462.727.003 1.355-.29 2.152-.72-1.977-.638-2.2-2.579-3.376-3.763 2.05-.943 1.423.41 3.405-.835.49-.308 1.001-.5 1.606-.466 4.373.25 14.524-2.067 22.537-.602 2.991.547 3.78 1.121 5.39.57.324-.112.661-.2 1.081-.058-1.32 2.52-2.59 2.533-4.29 2.045.822 2.251 1.144 4.51 1.501 6.757.632 3.976-.024 5.538 2.402 10.336 1.225 2.423 2.77 3.93 4.794 5.121-.434 3.087.754 7.631 1.819 10.586 1.166 3.237 1.754 5.751 2.101 6.204.92 1.199-.829 2.665-2.077 2.476-.595-.091-.292.486-.22.537 1.291.901.44 1.833.04 2.755-.27.621-.613.899-1.42.802-3.365-.4-4.951.485-4.316-.663 1.257-2.272 2.844-3.125 3.68-5.141.507-1.221.228-2.419-.055-3.598-1.952-8.114-3.367-9.404-4.734-11.46-1.009-1.518-2.424-6.613-8.024-10.024-2.405-1.465-2.451.027-3.1-.672-.857-.923-1.964-.837-3.072-.785-1.794.084-3.31.893-4.79 1.802-.517.317-1.094.519-1.577.909-.825.666-1.758-1.467-10.216-.31-.398.055-.809.008-1.267.008-.395 1.393-.615 2.793-.732 4.2-.562 6.76 1.659 7.426.813 10.33-1.209 4.148.547 9.524.644 11.273.041.735-.3 1.137-1.04 1.195-.53.041-.53.041-.924.302.61 1.086-.243 1.875-.585 2.777-.069.183-.214.216-.39.228a52 52 0 0 1-4.631.111c-.174-.004-.317-.06-.489-.261.827-1.146 1.36-2.531 2.59-3.417.421-.303.704-.71.88-1.213 1.724-4.909 1.037-6.443.55-8.711a11.6 11.6 0 0 0-.863-2.598c-.573-1.202-.36-2.517-.563-3.772-.407-2.52-.841-6.49-1.64-8.678-.047-.128-.11-.247-.025-.405.72-1.328 1.027-2.772 1.14-4.115.44.384.935.845 1.462 1.266.633.506 1.42.602 1.803.228-2.197-.917-.215-5.263-1.39-6.136.33 1.96-.473 3.936.383 5.875-1.232-.365-1.742-1.45-2.518-2.455.108 1.813-.197 3.428-1.08 4.88-.846 1.392-1.88 2.627-3.373 3.444.327-.813 1.429-1.872-.034-4.016-1.046 1.254-1.66 2.908-3.552 3.538.248-.626.616-.942.71-1.405.797-3.872-1.449-5.702-1.337-7.912-1.445 1.316-2.865 2.33-4.984 2.118 2.049-1.434 1.675-3.237 1.675-7.107-1.278.705-2.534 1.41-4.044.58 2.614-1.012 2.224-3.89 3.026-6.498-1.109.435-2.101.888-3.238.752.018-.092.014-.155.033-.164 2.514-1.102 2.618-4.877 3.515-7.122-1.167.283-2.24.713-3.524.224 2.28-.475 3.14-2.119 3.888-3.9.344-.818.802-1.589 1.238-2.439-1.618-.43-3.207-.751-4.82-.296-2.337.66-2.542-.178-3.875-2.21.41-.357 1.024-.196 1.227-.727.05-.129.126-.268-.052-.369-.312.46-.312.46-1.239.677-.971-1.211.364-.475 5.863-3.952 1.724-1.09 3.687-2.583 5.36-2.975 1.996-.469.844-1.419 1.848-1.52.287-.03.373-.204.271-.478-2.922-.732-6.04 1.488-13.088 1.343-.356-.008-.758.043-1.151-.346 2.847-.164 5.552-.508 8.017-1.894m9.336 5.266c.93-.844 1.962-1.304 2.98-1.771 1.059-.485 2.203-.59 3.378-.566-1.307-1.022-6.377 1.077-6.358 2.337m-4.845.207c-.777-.244-1.37-.39-2.009-.403-.562-.011-.673.27-.608.717.037.253.08.525.335.732zm10.33 28.004c.491 1.02 2.097 1.895 2.653 1.44-1.017-.26-1.879-.758-2.653-1.44m-.108.674c-.046-.301-.116-.587-.443-.839.012.422.115.689.443.839"/><path fill="#E6C067" d="M40.347 109.908c.41-1.289 1.298-2.209 2.064-3.207.216-.282.553-.339.874-.377 2.227-.269-.324-2.341 3.627-4.545 1.182-.658 1.728-1.844 2.275-2.952 2.008-4.067 3.316-8.392 4.177-12.826 1.332-6.861-.599-7.348.328-7.86 1.525-.845 3.062-.878 4.58-.028 1.384.775 2.015-.515 3.031.653-1.307 1.829-3.797 5-3.288 8.293.007.04 0 .09.022.12.804 1.096.04 1.77-.658 2.467-1.437 1.435-2.48 3.135-3.441 4.913-4.163 7.706-2.678 10.518-5.78 10.509-.44-.001-.932.158-.622.635.872 1.341-.647 2.459-.851 3.459-.113.554-.485.797-.944.729-1.837-.272-3.877.286-5.394.017M23.9 76.598c.762 1.414 1.04 2.849.975 4.36-.03.69-.09-.242-6.073 3.18-1.89 1.082-2.846 2.823-3.066 4.975-.143 1.393-.548 2.754.845 4.08.967.922.893 2.043-.265 2.658-1.36.721.108 1.98.478 1.87 1.09-.318 1.66.502 2.352 1.062.19.153.232.282.127.517-1.931 4.321-1.83 4.448-2.282 4.658-.875-.711-1.409-1.711-2.3-2.371-.615-.455.56-1.81-1.27-3.26-3.11-2.462-.628-4.66.44-13.947.2-1.722 2.3-2.558 10.039-7.782m-7.92-49.631c1.683 3.236 6.56 7.026 11.34 7.17a61 61 0 0 0 5.67-.08c2.676-.167 5.081-5.167.713-7.54-1.555-.846-2.989-1.87-4.11-3.286-.988-1.247-1.632-3.64-.382-5.615 0 2.322-.207 2.976 2.21 5.332 1.894 1.846 5.315 2.428 6.25 5.75.704 2.5-.995 4.228.193 4.626-.689 1.113-1.36 2.014-2.816 2.158-1.963.194-3.915.505-5.893.51-.562.002-.535.458-.745.82-2.188-.21-2.426-.194-2.536-.365-.705-1.092-1.826-1.146-2.867-.928-1.744.366-3.065-.419-4.44-1.247 1.12-.721 1.144-1.12.207-2.155-1.163-1.285-2.291-2.597-2.808-4.303-.071-.235-.25-.48.014-.847m46.302-5.277c-.346 1.777-.212 1.704-.819 1.984-1.44.662-3.015.993-4.405 1.76-1.165.645-2.112 1.604-3.07 2.505-1.039.976-.686 2.532.612 3.21.665.349 1.343.673 2.014 1.008-1.48 2.592-3.787-.058-7.178-.847.32-.866.369-1.77.377-2.678.007-.72 2.282-.618 5.824-4.76 1-1.168 1.498-2.713 1.95-4.182.603-1.967 2.085-7.037 2.014-9.08-.01-.306.07-.504.364-.61.961.568-.06 8.208-.704 10.193-.262.806.265 2.555 2.31 1.565.227-.11.416-.252.71-.067M42.81 13.945c.136.84.108 1.527.342 2.183 1.506 4.23 5.49 7.696 3.226 12.947-.137.316-.347.662-.082.977.301.356.579-.116.961-.093a7.8 7.8 0 0 1-.796 2.318c-.05.093-.188.163-.3.197-1.958.61-3.866 1.384-5.961 1.903.305-.715.643-1.33.794-2.012.089-.397 2.064-.087 3.713-4.25 2-5.048-2.393-7.853-2.658-12.401-.039-.669.275-1.152.76-1.769m16.403 20.32c1.894-1.433 2.115-1.812 3.573-1.793 2.859.036 7.013-1.32 7.206-1.422.147-.077.276-.007.35.145-.663 1.28-7.117 3.727-11.129 3.07M69.76 17.478c.363 1.138-5.216 4.726-5.854 4.955-.122-1.269.018-1.412 1.155-1.923 3.582-1.61 4.325-3.063 4.699-3.032M17.276 35.595c-2.339-.238-4.413-.805-6.608-1.403.813-.33 1.445.04 2.086.123 3.045.399 2.723-.393 4.522 1.28M0 8V0h53v8z"/><path fill="#E6C067" d="M0 2h8v70H0zm89 110v8H36v-8z"/><path fill="#E6C067" d="M89 118h-8V48h8z"/></svg>