<svg xmlns="http://www.w3.org/2000/svg" width="30" height="30" fill="none"><path fill="#fff" d="M21.25 22.5a2.5 2.5 0 1 1-2.5 2.5c0-1.387 1.113-2.5 2.5-2.5m-20-20h4.088L6.513 5H25a1.25 1.25 0 0 1 1.25 1.25c0 .213-.062.425-.15.625l-4.475 8.088a2.51 2.51 0 0 1-2.187 1.287h-9.313L9 18.288l-.037.15a.313.313 0 0 0 .312.312H23.75v2.5h-15a2.5 2.5 0 0 1-2.5-2.5c0-.437.112-.85.3-1.2l1.7-3.062L3.75 5h-2.5zm7.5 20a2.5 2.5 0 1 1-2.5 2.5c0-1.387 1.112-2.5 2.5-2.5M20 13.75l3.475-6.25h-15.8l2.95 6.25z"/></svg>