<svg width="40" height="40" viewBox="0 0 40 40" fill="none" xmlns="http://www.w3.org/2000/svg">
<path d="M36.25 27.0833L28.3333 35L23.75 30L25.6833 28.0667L28.3333 30.7167L34.3167 24.7333L36.25 27.0833ZM13.3333 23.3333C13.3333 20.3833 16.6667 14.9333 20 10.65C22.5 13.8833 25 17.7833 26.1167 20.7833C27.1167 20.35 28.2167 20.1 29.3667 20C27.1833 13.5 20 5.41666 20 5.41666C20 5.41666 10 16.6667 10 23.3333C10 28.85 14.4833 33.3333 20 33.3333C20.2 33.3333 20.3833 33.3333 20.5667 33.3333C20.2 32.2667 20 31.1667 20 30C16.3167 30 13.3333 27.0167 13.3333 23.3333Z" fill="#946000"/>
</svg>
