<svg width="40" height="40" viewBox="0 0 40 40" fill="none" xmlns="http://www.w3.org/2000/svg">
<path d="M20.0002 13.3333C21.7683 13.3333 23.464 14.0357 24.7143 15.286C25.9645 16.5362 26.6669 18.2319 26.6669 20C26.6669 21.7681 25.9645 23.4638 24.7143 24.7141C23.464 25.9643 21.7683 26.6667 20.0002 26.6667C18.2321 26.6667 16.5364 25.9643 15.2862 24.7141C14.0359 23.4638 13.3336 21.7681 13.3336 20C13.3336 18.2319 14.0359 16.5362 15.2862 15.286C16.5364 14.0357 18.2321 13.3333 20.0002 13.3333ZM20.0002 16.6667C19.1162 16.6667 18.2683 17.0179 17.6432 17.643C17.0181 18.2681 16.6669 19.116 16.6669 20C16.6669 20.8841 17.0181 21.7319 17.6432 22.357C18.2683 22.9822 19.1162 23.3333 20.0002 23.3333C20.8843 23.3333 21.7321 22.9822 22.3572 22.357C22.9824 21.7319 23.3336 20.8841 23.3336 20C23.3336 19.116 22.9824 18.2681 22.3572 17.643C21.7321 17.0179 20.8843 16.6667 20.0002 16.6667ZM16.6669 36.6667C16.2502 36.6667 15.9002 36.3667 15.8336 35.9667L15.2169 31.55C14.1669 31.1333 13.2669 30.5667 12.4002 29.9L8.25022 31.5833C7.88355 31.7167 7.43355 31.5833 7.23355 31.2167L3.90022 25.45C3.68355 25.0833 3.78355 24.6333 4.10022 24.3833L7.61689 21.6167L7.50022 20L7.61689 18.3333L4.10022 15.6167C3.78355 15.3667 3.68355 14.9167 3.90022 14.55L7.23355 8.78334C7.43355 8.41668 7.88355 8.26668 8.25022 8.41668L12.4002 10.0833C13.2669 9.43334 14.1669 8.86668 15.2169 8.45001L15.8336 4.03334C15.9002 3.63334 16.2502 3.33334 16.6669 3.33334H23.3336C23.7502 3.33334 24.1002 3.63334 24.1669 4.03334L24.7836 8.45001C25.8336 8.86668 26.7336 9.43334 27.6002 10.0833L31.7502 8.41668C32.1169 8.26668 32.5669 8.41668 32.7669 8.78334L36.1002 14.55C36.3169 14.9167 36.2169 15.3667 35.9002 15.6167L32.3836 18.3333L32.5002 20L32.3836 21.6667L35.9002 24.3833C36.2169 24.6333 36.3169 25.0833 36.1002 25.45L32.7669 31.2167C32.5669 31.5833 32.1169 31.7333 31.7502 31.5833L27.6002 29.9167C26.7336 30.5667 25.8336 31.1333 24.7836 31.55L24.1669 35.9667C24.1002 36.3667 23.7502 36.6667 23.3336 36.6667H16.6669ZM18.7502 6.66668L18.1336 11.0167C16.1336 11.4333 14.3669 12.5 13.0836 13.9833L9.06689 12.25L7.81689 14.4167L11.3336 17C10.6669 18.95 10.6669 21.0667 11.3336 23L7.80022 25.6L9.05022 27.7667L13.1002 26.0333C14.3836 27.5 16.1336 28.5667 18.1169 28.9667L18.7336 33.3333H21.2669L21.8836 28.9833C23.8669 28.5667 25.6169 27.5 26.9002 26.0333L30.9502 27.7667L32.2002 25.6L28.6669 23.0167C29.3336 21.0667 29.3336 18.95 28.6669 17L32.1836 14.4167L30.9336 12.25L26.9169 13.9833C25.6336 12.5 23.8669 11.4333 21.8669 11.0333L21.2502 6.66668H18.7502Z" fill="#946000"/>
</svg>
