<svg width="61" height="60" viewBox="0 0 61 60" fill="none" xmlns="http://www.w3.org/2000/svg">
<path d="M40.6667 5C33.7667 5 28.1667 10.6 28.1667 17.5C28.1667 24.4 33.7667 30 40.6667 30C47.5667 30 53.1667 24.4 53.1667 17.5C53.1667 10.6 47.5667 5 40.6667 5ZM40.6667 25C36.5167 25 33.1667 21.65 33.1667 17.5C33.1667 13.35 36.5167 10 40.6667 10C44.8167 10 48.1667 13.35 48.1667 17.5C48.1667 21.65 44.8167 25 40.6667 25ZM48.1667 40H43.1667C43.1667 37 41.2917 34.3 38.4917 33.25L23.0917 27.5H3.16675V55H18.1667V51.4L35.6667 56.25L55.6667 50V47.5C55.6667 43.35 52.3167 40 48.1667 40ZM13.1667 50H8.16675V32.5H13.1667V50ZM35.5917 51.025L18.1667 46.25V32.5H22.1917L36.7417 37.925C37.5917 38.25 38.1667 39.075 38.1667 40C38.1667 40 33.1667 39.875 32.4167 39.625L26.4667 37.65L24.8917 42.4L30.8417 44.375C32.1167 44.8 33.4417 45 34.7917 45H48.1667C49.1417 45 50.0167 45.6 50.4167 46.425L35.5917 51.025Z" fill="#242424"/>
</svg>
