<svg width="61" height="60" viewBox="0 0 61 60" fill="none" xmlns="http://www.w3.org/2000/svg">
<path d="M40.3333 5C33.4333 5 27.8333 10.6 27.8333 17.5C27.8333 24.4 33.4333 30 40.3333 30C47.2333 30 52.8333 24.4 52.8333 17.5C52.8333 10.6 47.2333 5 40.3333 5ZM40.3333 25C36.1833 25 32.8333 21.65 32.8333 17.5C32.8333 13.35 36.1833 10 40.3333 10C44.4833 10 47.8333 13.35 47.8333 17.5C47.8333 21.65 44.4833 25 40.3333 25ZM47.8333 40H42.8333C42.8333 37 40.9583 34.3 38.1583 33.25L22.7583 27.5H2.83331V55H17.8333V51.4L35.3333 56.25L55.3333 50V47.5C55.3333 43.35 51.9833 40 47.8333 40ZM12.8333 50H7.83331V32.5H12.8333V50ZM35.2583 51.025L17.8333 46.25V32.5H21.8583L36.4083 37.925C37.2583 38.25 37.8333 39.075 37.8333 40C37.8333 40 32.8333 39.875 32.0833 39.625L26.1333 37.65L24.5583 42.4L30.5083 44.375C31.7833 44.8 33.1083 45 34.4583 45H47.8333C48.8083 45 49.6833 45.6 50.0833 46.425L35.2583 51.025Z" fill="white"/>
</svg>
