<svg width="106" height="145" viewBox="0 0 106 145" fill="none" xmlns="http://www.w3.org/2000/svg">
<path d="M27.6812 50.322C27.6253 49.278 26.9038 48.7555 26.2204 48.3301C25.0223 47.5842 24.1721 46.4922 23.1591 45.5641C22.6891 45.1335 22.5001 44.5447 22.0716 43.9276C22.5127 44.0557 22.7368 44.2031 22.9394 44.4024C27.713 49.096 33.0193 49.5389 39.809 49.9354C43.3246 50.1407 45.926 47.4208 46.8633 44.6685C47.9235 41.5553 44.4873 38.3212 44.8452 33.9489C44.8823 33.4958 45.1403 33.0607 45.4164 32.6453C45.7395 36.5158 46.1291 36.2966 47.5853 39.8429C50.093 45.9503 47.3636 46.6995 46.2822 49.0965C45.9871 49.7505 46.2844 50.0586 46.9911 50.1613C49.5573 50.5343 51.2203 49.0607 52.8895 47.4659C57.3359 43.2173 55.1581 37.9908 57.0224 33.0085C57.2618 32.3688 57.6858 32.0924 58.3284 31.8107C55.5177 37.7973 60.4943 41.2867 54.2901 48.3447C54.0059 48.668 54.0458 48.9821 54.1667 49.3015C54.3016 49.6581 54.6411 49.5684 54.9107 49.513C60.7923 48.3036 60.5616 48.1868 65.5773 44.6528C67.2087 43.5032 68.0991 41.7979 68.7363 39.9303C69.2866 38.3173 70.1125 36.8002 70.4637 35.1163C70.8309 33.3554 70.5252 33.6797 71.3136 30.6816C73.0791 33.8571 67.7814 42.9369 71.5593 41.8459C78.8665 39.7357 78.8019 38.6954 79.429 38.8285C79.4763 39.1633 79.2876 39.3568 79.0579 39.5396C77.89 40.4694 76.6495 41.2879 75.2756 41.8758C68.8385 44.6306 66.3253 47.0367 64.3877 48.0805C63.2672 48.684 63.2979 50.3543 64.6467 50.8568C70.8266 53.1597 76.2334 52.0239 77.2735 52.5846C76.6916 53.2054 75.9046 53.2608 75.1608 53.3456C69.8869 53.947 64.7458 53.3487 59.8435 51.3068C58.5864 50.7832 57.4903 51.0097 56.3276 51.228C54.814 51.5121 48.162 52.0354 42.2532 51.8496C37.2671 51.6928 36.5725 51.0815 36.2031 51.3405C35.9173 51.8607 37.4734 52.3354 36.212 52.8193C36.7648 53.5109 37.2387 53.5665 38.0779 53.1628C41.6086 51.4644 45.0486 53.2405 47.3097 52.8804C47.4351 53.0621 47.3559 53.2085 47.2392 53.2742C45.2581 54.3898 45.4859 57.0742 40.1998 56.1567C40.1826 56.1537 40.1621 56.1694 40.0648 56.2054C41.1163 57.7868 41.4746 61.8602 44.3267 61.5516C43.4753 62.4588 42.4025 62.7786 41.17 62.7315C41.1372 63.1569 41.3812 63.4567 41.5104 63.7807C42.6599 66.6634 43.0541 68.934 46.0337 68.7828C45.453 69.5493 44.7615 70.0554 43.8716 70.2858C45.0575 72.3273 48.0649 74.3193 50.4039 71.6981C50.5586 71.9973 50.325 72.1828 50.2229 72.4102C48.791 75.5978 45.885 74.6435 44.3207 75.592C44.1679 75.6847 44.0035 75.7837 43.9583 76.1085C45.4503 76.2024 45.373 77.777 46.2224 78.543C46.5926 78.8768 46.8592 79.3287 47.3546 79.5712C46.0588 80.0756 45.7982 80.2547 42.9113 79.1828C42.9653 79.2994 42.9808 79.4145 43.0456 79.4607C44.9284 80.8055 44.1134 83.6637 45.1881 84.9465C45.3141 85.097 45.3856 85.3064 45.782 85.2982C44.7021 83.6331 44.9898 81.5736 43.7968 79.7991C44.5703 80.1618 45.2553 80.2592 45.9518 80.2615C46.6789 80.2639 47.3069 79.9718 48.1042 79.5404C46.1266 78.9026 45.9043 76.9624 44.7275 75.7782C46.7779 74.835 46.1511 76.1886 48.133 74.943C48.6233 74.6349 49.1341 74.4425 49.7391 74.477C54.1124 74.7266 64.263 72.4099 72.2756 73.8747C75.2674 74.4217 76.0558 74.9964 77.6654 74.4441C77.9898 74.3328 78.3274 74.2458 78.7471 74.387C77.4269 76.907 76.1574 76.9196 74.4569 76.4316C75.2794 78.6835 75.6008 80.9421 75.958 83.1885C76.5903 87.1648 75.9344 88.7273 78.3598 93.5253C79.5848 95.9485 81.1307 97.4543 83.1537 98.6465C82.72 101.733 83.9075 106.277 84.9728 109.232C86.1393 112.469 86.7267 114.983 87.0743 115.436C87.9944 116.635 86.2454 118.101 84.9972 117.912C84.402 117.821 84.7047 118.398 84.7775 118.449C86.0685 119.35 85.2167 120.282 84.8162 121.204C84.5464 121.825 84.2041 122.103 83.3961 122.006C80.0318 121.606 78.4459 122.491 79.0811 121.343C80.3379 119.071 81.9246 118.218 82.7614 116.202C83.2683 114.981 82.9892 113.783 82.7055 112.604C80.7539 104.49 79.3391 103.2 77.9719 101.143C76.9633 99.626 75.5475 94.5307 69.9478 91.1203C67.5427 89.6554 67.4967 91.1467 66.8477 90.4479C65.9911 89.5254 64.8843 89.6113 63.7755 89.6632C61.9817 89.747 60.4655 90.5564 58.9866 91.4646C58.4695 91.7821 57.8918 91.9835 57.4089 92.3738C56.584 93.0405 55.6515 90.9072 47.1926 92.0645C46.7953 92.1189 46.3842 92.072 45.9262 92.072C45.5305 93.4652 45.311 94.8652 45.194 96.2712C44.6318 103.033 46.853 103.698 46.0071 106.602C44.7985 110.75 46.5535 116.126 46.6512 117.875C46.6922 118.61 46.3516 119.012 45.6109 119.07C45.0819 119.111 45.0819 119.111 44.6874 119.372C45.2967 120.458 44.444 121.247 44.1024 122.149C44.0333 122.332 43.8878 122.365 43.7119 122.377C42.1697 122.478 40.6264 122.524 39.0809 122.488C38.9066 122.484 38.7637 122.428 38.5922 122.227C39.4192 121.081 39.9527 119.696 41.182 118.81C41.6031 118.507 41.8859 118.1 42.0623 117.597C43.7859 112.688 43.0985 111.154 42.6129 108.886C42.4213 107.99 42.1432 107.115 41.7491 106.288C41.1758 105.086 41.3893 103.771 41.1863 102.516C40.7787 99.9964 40.3448 96.0254 39.5457 93.8376C39.4992 93.7103 39.4352 93.5908 39.5207 93.4333C40.2415 92.105 40.5479 90.6613 40.6608 89.3179C41.1019 89.7022 41.5964 90.163 42.1229 90.5839C42.7563 91.0901 43.5428 91.1862 43.9261 90.8124C41.7287 89.8951 43.7106 85.5491 42.5353 84.6757C42.8667 86.6366 42.0635 88.6123 42.9191 90.5509C41.6874 90.1862 41.1772 89.1007 40.4007 88.0956C40.5086 89.9092 40.2041 91.5237 39.3217 92.9752C38.4746 94.3685 37.4407 95.6034 35.9479 96.4198C36.2746 95.607 37.377 94.548 35.9143 92.4036C34.868 93.6575 34.2547 95.3116 32.3618 95.9425C32.6096 95.3161 32.9777 95.0003 33.0729 94.5374C33.8689 90.6653 31.6232 88.8347 31.7347 86.6249C30.2897 87.9405 28.8698 88.9548 26.7508 88.7428C28.7997 87.3094 28.4261 85.5061 28.4261 81.6363C27.1476 82.3406 25.892 83.0466 24.3815 82.2169C26.996 81.2037 26.6058 78.3255 27.408 75.7177C26.2991 76.1531 25.3067 76.6064 24.1702 76.4704C24.1877 76.3781 24.1837 76.315 24.2035 76.3063C26.7167 75.2035 26.8208 71.4293 27.7176 69.1838C26.551 69.467 25.4771 69.8967 24.1938 69.4077C26.4748 68.9327 27.3343 67.2894 28.0819 65.5087C28.4256 64.6901 28.8838 63.9195 29.3195 63.0695C27.7023 62.6387 26.1126 62.318 24.5007 62.7734C22.163 63.4338 21.9576 62.5953 20.6252 60.5637C21.0351 60.2061 21.6494 60.367 21.8525 59.8358C21.9017 59.7073 21.9779 59.5678 21.7996 59.4674C21.4875 59.9275 21.4875 59.9275 20.561 60.144C19.5896 58.9329 20.925 59.6688 26.4236 56.1922C28.1478 55.1019 30.1113 53.609 31.7831 53.2166C33.7801 52.748 32.6281 51.7984 33.6316 51.6968C33.9193 51.6677 34.0054 51.4932 33.9034 51.2189C30.9811 50.4872 27.8638 52.707 20.815 52.5617C20.4586 52.5544 20.0565 52.6045 19.6638 52.2162C22.5114 52.0516 25.2163 51.7083 27.6812 50.322ZM37.0174 55.588C37.9473 54.7437 38.9785 54.2839 39.9978 53.817C41.0558 53.3324 42.1995 53.2278 43.3747 53.2506C42.0679 52.2288 36.9977 54.328 37.0174 55.588ZM32.1724 55.7946C31.3948 55.5513 30.8028 55.4049 30.1632 55.392C29.6008 55.3807 29.49 55.6628 29.555 56.1087C29.5921 56.3625 29.6347 56.6341 29.8902 56.8414C30.5876 56.5216 31.2965 56.1964 32.1724 55.7946ZM42.502 83.7988C42.9933 84.8185 44.599 85.6938 45.1552 85.2396C44.1375 84.9794 43.2762 84.481 42.502 83.7988ZM42.3938 84.4727C42.3483 84.1719 42.2777 83.8856 41.9507 83.6343C41.9632 84.0558 42.0659 84.3227 42.3938 84.4727Z" fill="#242424"/>
<path d="M48.3474 122.408C48.757 121.119 49.6455 120.199 50.4107 119.201C50.627 118.919 50.9638 118.862 51.285 118.824C53.5118 118.555 50.9608 116.483 54.9123 114.279C56.0936 113.621 56.64 112.435 57.1867 111.327C59.1946 107.26 60.5033 102.935 61.3638 98.5013C62.6957 91.64 60.7652 91.1535 61.6915 90.6405C63.2172 89.7957 64.7536 89.7629 66.2713 90.6129C67.6556 91.3881 68.2866 90.0977 69.3031 91.266C67.9959 93.0949 65.5064 96.2663 66.0153 99.5589C66.0215 99.5992 66.0159 99.6488 66.0374 99.6781C66.8414 100.775 66.0764 101.449 65.379 102.146C63.9423 103.581 62.8981 105.281 61.938 107.059C57.7755 114.765 59.2603 117.577 56.1575 117.568C55.7189 117.567 55.2257 117.726 55.536 118.203C56.4082 119.544 54.8888 120.662 54.685 121.662C54.5722 122.216 54.2003 122.459 53.741 122.391C51.9042 122.119 49.8641 122.677 48.3474 122.408Z" fill="#242424"/>
<path d="M31.8998 89.0979C32.6622 90.5123 32.9395 91.9465 32.8752 93.4574C32.8457 94.1484 32.7853 93.2165 26.8019 96.6389C24.9119 97.72 23.9556 99.461 23.7356 101.613C23.5932 103.006 23.1877 104.367 24.581 105.694C25.5483 106.614 25.4745 107.736 24.3162 108.351C22.9555 109.072 24.4236 110.33 24.7943 110.222C25.8843 109.903 26.4534 110.723 27.146 111.283C27.3353 111.436 27.3784 111.565 27.2734 111.8C25.3416 116.121 25.4429 116.248 24.9914 116.458C24.1158 115.747 23.5824 114.747 22.6914 114.087C22.0764 113.632 23.2503 112.276 21.4213 110.828C18.3108 108.364 20.7926 106.166 21.8619 96.8799C22.0602 95.1576 24.1611 94.3223 31.8998 89.0979Z" fill="#242424"/>
<path d="M23.9797 39.4669C25.6631 42.703 30.5394 46.4929 35.3199 46.6368C37.2149 46.6938 39.1054 46.6763 40.9897 46.5579C43.6663 46.3897 46.0713 41.3898 41.7032 39.0163C40.148 38.1712 38.7143 37.1467 37.5924 35.7309C36.6045 34.4841 35.9606 32.0909 37.2113 30.1157C37.2113 32.438 37.0038 33.0917 39.4216 35.4483C41.3149 37.2935 44.7356 37.8764 45.6711 41.1987C46.3749 43.6984 44.6764 45.4259 45.8643 45.8237C45.1753 46.9372 44.5045 47.8382 43.0483 47.9822C41.0853 48.1763 39.1329 48.487 37.1552 48.4925C36.5928 48.494 36.6204 48.9495 36.41 49.3124C34.2216 49.1022 33.984 49.1175 33.8741 48.9472C33.1692 47.8554 32.048 47.8011 31.007 48.0195C29.2634 48.3853 27.942 47.6005 26.5671 46.7721C27.6863 46.0505 27.7113 45.652 26.7743 44.6169C25.6114 43.3324 24.4826 42.0202 23.9659 40.3143C23.8948 40.0791 23.7169 39.8349 23.9797 39.4669Z" fill="#242424"/>
<path d="M70.2815 34.1905C69.9359 35.9672 70.07 35.8945 69.4633 36.1736C68.0237 36.8361 66.4477 37.1668 65.0582 37.9349C63.8927 38.5793 62.9463 39.5376 61.9879 40.4387C60.9493 41.4153 61.3022 42.971 62.5997 43.6499C63.2649 43.998 63.9425 44.3223 64.6145 44.6572C63.1339 47.2488 60.8265 44.5986 57.4363 43.8099C57.7562 42.9437 57.8048 42.0406 57.8134 41.132C57.8201 40.4123 60.0952 40.5139 63.6373 36.3729C64.6373 35.2039 65.1353 33.6585 65.5863 32.1896C66.1901 30.2233 67.6717 25.1534 67.6015 23.1106C67.591 22.8044 67.6709 22.606 67.9649 22.5C68.9261 23.0684 67.9052 30.7077 67.2609 32.6928C66.9993 33.4989 67.5256 35.2478 69.5706 34.2579C69.7979 34.1479 69.9866 34.006 70.2815 34.1905Z" fill="#242424"/>
<path d="M50.8099 26.4453C50.9459 27.2856 50.9181 27.9719 51.1517 28.6281C52.6576 32.8579 56.6423 36.3242 54.3776 41.5746C54.2413 41.8908 54.0305 42.2371 54.2963 42.5518C54.5973 42.9081 54.875 42.436 55.2574 42.4586C55.1089 43.2791 54.849 44.0497 54.4605 44.7768C54.4105 44.8703 54.2729 44.9398 54.1616 44.9745C52.203 45.5849 50.2953 46.3578 48.2 46.8766C48.5055 46.1617 48.8429 45.5477 48.9944 44.8651C49.0825 44.4682 51.058 44.7779 52.7071 40.6151C54.7068 35.5672 50.3141 32.7621 50.0492 28.214C50.0102 27.5454 50.3235 27.0623 50.8099 26.4453Z" fill="#242424"/>
<path d="M67.2124 46.7647C69.1062 45.332 69.3274 44.9532 70.7854 44.9717C73.6439 45.0079 77.7977 43.6511 77.991 43.5499C78.1385 43.4726 78.2668 43.5433 78.3414 43.6945C77.6775 44.9745 71.2237 47.4219 67.2124 46.7647Z" fill="#242424"/>
<path d="M77.7596 29.978C78.1228 31.1157 72.544 34.7042 71.9057 34.933C71.7839 33.664 71.9237 33.5214 73.061 33.0103C76.643 31.4004 77.3864 29.9474 77.7596 29.978Z" fill="#242424"/>
<path d="M25.2759 48.0948C22.937 47.8573 20.8634 47.2903 18.6682 46.6924C19.4807 46.3615 20.1133 46.7312 20.7544 46.8152C23.7986 47.2137 23.4767 46.4221 25.2759 48.0948Z" fill="#242424"/>
<rect y="8.5" width="8" height="53" transform="rotate(-90 0 8.5)" fill="#E6C067"/>
<rect y="2.5" width="8" height="70" fill="#E6C067"/>
<rect x="106" y="136.5" width="8" height="53" transform="rotate(90 106 136.5)" fill="#E6C067"/>
<rect x="106" y="142.5" width="8" height="70" transform="rotate(-180 106 142.5)" fill="#E6C067"/>
</svg>
