<svg width="89" height="120" viewBox="0 0 89 120" fill="none" xmlns="http://www.w3.org/2000/svg">
<path d="M19.6812 37.822C19.6253 36.778 18.9038 36.2555 18.2204 35.8301C17.0223 35.0842 16.1721 33.9922 15.1591 33.0641C14.6891 32.6335 14.5001 32.0447 14.0716 31.4276C14.5127 31.5557 14.7368 31.7031 14.9394 31.9024C19.713 36.596 25.0193 37.0389 31.809 37.4354C35.3246 37.6407 37.926 34.9208 38.8633 32.1685C39.9235 29.0553 36.4873 25.8212 36.8452 21.4489C36.8823 20.9958 37.1403 20.5607 37.4164 20.1453C37.7395 24.0158 38.1291 23.7966 39.5853 27.3429C42.093 33.4503 39.3636 34.1995 38.2822 36.5965C37.9871 37.2505 38.2844 37.5586 38.9911 37.6613C41.5573 38.0343 43.2203 36.5607 44.8895 34.9659C49.3359 30.7173 47.1581 25.4908 49.0224 20.5085C49.2618 19.8688 49.6858 19.5924 50.3284 19.3107C47.5177 25.2973 52.4943 28.7867 46.2901 35.8447C46.0059 36.168 46.0458 36.4821 46.1667 36.8015C46.3016 37.1581 46.6411 37.0684 46.9107 37.013C52.7923 35.8036 52.5616 35.6868 57.5773 32.1528C59.2087 31.0032 60.0991 29.2979 60.7363 27.4303C61.2866 25.8173 62.1125 24.3002 62.4637 22.6163C62.8309 20.8554 62.5252 21.1797 63.3136 18.1816C65.0791 21.3571 59.7814 30.4369 63.5593 29.3459C70.8665 27.2357 70.8019 26.1954 71.429 26.3285C71.4763 26.6633 71.2876 26.8568 71.0579 27.0396C69.89 27.9694 68.6495 28.7879 67.2756 29.3758C60.8385 32.1306 58.3253 34.5367 56.3877 35.5805C55.2672 36.184 55.2979 37.8543 56.6467 38.3568C62.8266 40.6597 68.2334 39.5239 69.2735 40.0846C68.6916 40.7054 67.9046 40.7608 67.1608 40.8456C61.8869 41.447 56.7458 40.8487 51.8435 38.8068C50.5864 38.2832 49.4903 38.5097 48.3276 38.728C46.814 39.0121 40.162 39.5354 34.2532 39.3496C29.2671 39.1928 28.5725 38.5815 28.2031 38.8405C27.9173 39.3607 29.4734 39.8354 28.212 40.3193C28.7648 41.0109 29.2387 41.0665 30.0779 40.6628C33.6086 38.9644 37.0486 40.7405 39.3097 40.3804C39.4351 40.5621 39.3559 40.7085 39.2392 40.7742C37.2581 41.8898 37.4859 44.5742 32.1998 43.6567C32.1826 43.6537 32.1621 43.6694 32.0648 43.7054C33.1163 45.2868 33.4746 49.3602 36.3267 49.0516C35.4753 49.9588 34.4025 50.2786 33.17 50.2315C33.1372 50.6569 33.3812 50.9567 33.5104 51.2807C34.6599 54.1634 35.0541 56.434 38.0337 56.2828C37.453 57.0493 36.7615 57.5554 35.8716 57.7858C37.0575 59.8273 40.0649 61.8193 42.4039 59.1981C42.5586 59.4973 42.325 59.6828 42.2229 59.9102C40.791 63.0978 37.885 62.1435 36.3207 63.092C36.1679 63.1847 36.0035 63.2837 35.9583 63.6085C37.4503 63.7024 37.373 65.277 38.2224 66.043C38.5926 66.3768 38.8592 66.8287 39.3546 67.0712C38.0588 67.5756 37.7982 67.7547 34.9113 66.6828C34.9653 66.7994 34.9808 66.9145 35.0456 66.9607C36.9284 68.3055 36.1134 71.1637 37.1881 72.4465C37.3141 72.597 37.3856 72.8064 37.782 72.7982C36.7021 71.1331 36.9898 69.0736 35.7968 67.2991C36.5703 67.6618 37.2553 67.7592 37.9518 67.7615C38.6789 67.7639 39.3069 67.4718 40.1042 67.0404C38.1266 66.4026 37.9043 64.4624 36.7275 63.2782C38.7779 62.335 38.1511 63.6886 40.133 62.443C40.6233 62.1349 41.1341 61.9425 41.7391 61.977C46.1124 62.2266 56.263 59.9099 64.2756 61.3747C67.2674 61.9217 68.0558 62.4964 69.6654 61.9441C69.9898 61.8328 70.3274 61.7458 70.7471 61.887C69.4269 64.407 68.1574 64.4196 66.4569 63.9316C67.2794 66.1835 67.6008 68.4421 67.958 70.6885C68.5903 74.6648 67.9344 76.2273 70.3598 81.0253C71.5848 83.4485 73.1307 84.9543 75.1537 86.1465C74.72 89.2334 75.9075 93.7771 76.9728 96.7323C78.1393 99.9685 78.7267 102.483 79.0743 102.936C79.9944 104.135 78.2454 105.601 76.9972 105.412C76.402 105.321 76.7047 105.898 76.7775 105.949C78.0685 106.85 77.2167 107.782 76.8162 108.704C76.5464 109.325 76.2041 109.603 75.3961 109.506C72.0318 109.106 70.4459 109.991 71.0811 108.843C72.3379 106.571 73.9246 105.718 74.7614 103.702C75.2683 102.481 74.9892 101.283 74.7055 100.104C72.7539 91.9904 71.3391 90.6997 69.9719 88.6432C68.9633 87.126 67.5475 82.0307 61.9478 78.6203C59.5427 77.1554 59.4967 78.6467 58.8477 77.9479C57.9911 77.0254 56.8843 77.1113 55.7755 77.1632C53.9817 77.247 52.4655 78.0564 50.9866 78.9646C50.4695 79.2821 49.8918 79.4835 49.4089 79.8738C48.584 80.5405 47.6515 78.4072 39.1926 79.5645C38.7953 79.6189 38.3842 79.572 37.9262 79.572C37.5305 80.9652 37.311 82.3652 37.194 83.7712C36.6318 90.5327 38.853 91.1982 38.0071 94.1019C36.7985 98.2504 38.5535 103.626 38.6512 105.375C38.6922 106.11 38.3516 106.512 37.6109 106.57C37.0819 106.611 37.0819 106.611 36.6874 106.872C37.2967 107.958 36.444 108.747 36.1024 109.649C36.0333 109.832 35.8878 109.865 35.7119 109.877C34.1697 109.978 32.6264 110.024 31.0809 109.988C30.9066 109.984 30.7637 109.928 30.5922 109.727C31.4192 108.581 31.9527 107.196 33.182 106.31C33.6031 106.007 33.8859 105.6 34.0623 105.097C35.7859 100.188 35.0985 98.6541 34.6129 96.3856C34.4213 95.4902 34.1432 94.615 33.7491 93.7882C33.1758 92.5856 33.3893 91.2706 33.1863 90.0157C32.7787 87.4964 32.3448 83.5254 31.5457 81.3376C31.4992 81.2103 31.4352 81.0908 31.5207 80.9333C32.2415 79.605 32.5479 78.1613 32.6608 76.8179C33.1019 77.2022 33.5964 77.663 34.1229 78.0839C34.7563 78.5901 35.5428 78.6862 35.9261 78.3124C33.7287 77.3951 35.7106 73.0491 34.5353 72.1757C34.8667 74.1366 34.0635 76.1123 34.9191 78.0509C33.6874 77.6862 33.1772 76.6007 32.4007 75.5956C32.5086 77.4092 32.2041 79.0237 31.3217 80.4752C30.4746 81.8685 29.4407 83.1034 27.9479 83.9198C28.2746 83.107 29.377 82.048 27.9143 79.9036C26.868 81.1575 26.2547 82.8116 24.3618 83.4425C24.6096 82.8161 24.9777 82.5003 25.0729 82.0374C25.8689 78.1653 23.6232 76.3347 23.7347 74.1249C22.2897 75.4405 20.8698 76.4548 18.7508 76.2428C20.7997 74.8094 20.4261 73.0061 20.4261 69.1363C19.1476 69.8406 17.892 70.5466 16.3815 69.7169C18.996 68.7037 18.6058 65.8255 19.408 63.2177C18.2991 63.6531 17.3067 64.1064 16.1702 63.9704C16.1877 63.8781 16.1837 63.815 16.2035 63.8063C18.7167 62.7035 18.8208 58.9293 19.7176 56.6838C18.551 56.967 17.4771 57.3967 16.1938 56.9077C18.4748 56.4327 19.3343 54.7894 20.0819 53.0087C20.4256 52.1901 20.8838 51.4195 21.3195 50.5695C19.7023 50.1387 18.1126 49.818 16.5007 50.2734C14.163 50.9338 13.9576 50.0953 12.6252 48.0637C13.0351 47.7061 13.6494 47.867 13.8525 47.3358C13.9017 47.2073 13.9779 47.0678 13.7996 46.9674C13.4875 47.4275 13.4875 47.4275 12.561 47.644C11.5896 46.4329 12.925 47.1688 18.4236 43.6922C20.1478 42.6019 22.1113 41.109 23.7831 40.7166C25.7801 40.248 24.6281 39.2984 25.6316 39.1968C25.9193 39.1677 26.0054 38.9932 25.9034 38.7189C22.9811 37.9872 19.8638 40.207 12.815 40.0617C12.4586 40.0544 12.0565 40.1045 11.6638 39.7162C14.5114 39.5516 17.2163 39.2083 19.6812 37.822ZM29.0174 43.088C29.9473 42.2437 30.9785 41.7839 31.9978 41.317C33.0558 40.8324 34.1995 40.7278 35.3747 40.7506C34.0679 39.7288 28.9977 41.828 29.0174 43.088ZM24.1724 43.2946C23.3948 43.0513 22.8028 42.9049 22.1632 42.892C21.6008 42.8807 21.49 43.1628 21.555 43.6087C21.5921 43.8625 21.6347 44.1341 21.8902 44.3414C22.5876 44.0216 23.2965 43.6964 24.1724 43.2946ZM34.502 71.2988C34.9933 72.3185 36.599 73.1938 37.1552 72.7396C36.1375 72.4794 35.2762 71.981 34.502 71.2988ZM34.3938 71.9727C34.3483 71.6719 34.2777 71.3856 33.9507 71.1343C33.9632 71.5558 34.0659 71.8227 34.3938 71.9727Z" fill="#E6C067"/>
<path d="M40.3474 109.908C40.757 108.619 41.6455 107.699 42.4107 106.701C42.627 106.419 42.9638 106.362 43.285 106.324C45.5118 106.055 42.9608 103.983 46.9123 101.779C48.0936 101.121 48.64 99.9347 49.1867 98.8273C51.1946 94.7598 52.5033 90.4349 53.3638 86.0013C54.6957 79.14 52.7652 78.6535 53.6915 78.1405C55.2172 77.2957 56.7536 77.2629 58.2713 78.1129C59.6556 78.8881 60.2866 77.5977 61.3031 78.766C59.9959 80.5949 57.5064 83.7663 58.0153 87.0589C58.0215 87.0992 58.0159 87.1488 58.0374 87.1781C58.8414 88.2749 58.0764 88.9494 57.379 89.6458C55.9423 91.0806 54.8981 92.7809 53.938 94.5586C49.7755 102.265 51.2603 105.077 48.1575 105.068C47.7189 105.067 47.2257 105.226 47.536 105.703C48.4082 107.044 46.8888 108.162 46.685 109.162C46.5722 109.716 46.2003 109.959 45.741 109.891C43.9042 109.619 41.8641 110.177 40.3474 109.908Z" fill="#E6C067"/>
<path d="M23.8998 76.5979C24.6622 78.0123 24.9395 79.4465 24.8752 80.9574C24.8457 81.6484 24.7853 80.7165 18.8019 84.1389C16.9119 85.22 15.9556 86.961 15.7356 89.1131C15.5932 90.5059 15.1877 91.8672 16.581 93.1936C17.5483 94.1145 17.4745 95.2363 16.3162 95.8507C14.9555 96.5724 16.4236 97.8301 16.7943 97.7217C17.8843 97.4029 18.4534 98.223 19.146 98.7831C19.3353 98.9362 19.3784 99.0653 19.2734 99.2999C17.3416 103.621 17.4429 103.748 16.9914 103.958C16.1158 103.247 15.5824 102.247 14.6914 101.587C14.0764 101.132 15.2503 99.7761 13.4213 98.3277C10.3108 95.8645 12.7926 93.6662 13.8619 84.3799C14.0602 82.6576 16.1611 81.8223 23.8998 76.5979Z" fill="#E6C067"/>
<path d="M15.9797 26.9669C17.6631 30.203 22.5394 33.9929 27.3199 34.1368C29.2149 34.1938 31.1054 34.1763 32.9897 34.0579C35.6663 33.8897 38.0713 28.8898 33.7032 26.5163C32.148 25.6712 30.7143 24.6467 29.5924 23.2309C28.6045 21.9841 27.9606 19.5909 29.2113 17.6157C29.2113 19.938 29.0038 20.5917 31.4216 22.9483C33.3149 24.7935 36.7356 25.3764 37.6711 28.6987C38.3749 31.1984 36.6764 32.9259 37.8643 33.3237C37.1753 34.4372 36.5045 35.3382 35.0483 35.4822C33.0853 35.6763 31.1329 35.987 29.1552 35.9925C28.5928 35.994 28.6204 36.4495 28.41 36.8124C26.2216 36.6022 25.984 36.6175 25.8741 36.4472C25.1692 35.3554 24.048 35.3011 23.007 35.5195C21.2634 35.8853 19.942 35.1005 18.5671 34.2721C19.6863 33.5505 19.7113 33.152 18.7743 32.1169C17.6114 30.8324 16.4826 29.5202 15.9659 27.8143C15.8948 27.5791 15.7169 27.3349 15.9797 26.9669Z" fill="#E6C067"/>
<path d="M62.2815 21.6905C61.9359 23.4672 62.07 23.3945 61.4633 23.6736C60.0237 24.3361 58.4477 24.6668 57.0582 25.4349C55.8927 26.0793 54.9463 27.0376 53.9879 27.9387C52.9493 28.9153 53.3022 30.471 54.5997 31.1499C55.2649 31.498 55.9425 31.8223 56.6145 32.1572C55.1339 34.7488 52.8265 32.0986 49.4363 31.3099C49.7562 30.4437 49.8048 29.5406 49.8134 28.632C49.8201 27.9123 52.0952 28.0139 55.6373 23.8729C56.6373 22.7039 57.1353 21.1585 57.5863 19.6896C58.1901 17.7233 59.6717 12.6534 59.6015 10.6106C59.591 10.3044 59.6709 10.106 59.9649 10C60.9261 10.5684 59.9052 18.2077 59.2609 20.1928C58.9993 20.9989 59.5256 22.7478 61.5706 21.7579C61.7979 21.6479 61.9866 21.506 62.2815 21.6905Z" fill="#E6C067"/>
<path d="M42.8099 13.9453C42.9459 14.7856 42.9181 15.4719 43.1517 16.1281C44.6576 20.3579 48.6423 23.8242 46.3776 29.0746C46.2413 29.3908 46.0305 29.7371 46.2963 30.0518C46.5973 30.4081 46.875 29.936 47.2574 29.9586C47.1089 30.7791 46.849 31.5497 46.4605 32.2768C46.4105 32.3703 46.2729 32.4398 46.1616 32.4745C44.203 33.0849 42.2953 33.8578 40.2 34.3766C40.5055 33.6617 40.8429 33.0477 40.9944 32.3651C41.0825 31.9682 43.058 32.2779 44.7071 28.1151C46.7068 23.0672 42.3141 20.2621 42.0492 15.714C42.0102 15.0454 42.3235 14.5623 42.8099 13.9453Z" fill="#E6C067"/>
<path d="M59.2124 34.2647C61.1062 32.832 61.3274 32.4532 62.7854 32.4717C65.6439 32.5079 69.7977 31.1511 69.991 31.0499C70.1385 30.9726 70.2668 31.0433 70.3414 31.1945C69.6775 32.4745 63.2237 34.9219 59.2124 34.2647Z" fill="#E6C067"/>
<path d="M69.7596 17.478C70.1228 18.6157 64.544 22.2042 63.9057 22.433C63.7839 21.164 63.9237 21.0214 65.061 20.5103C68.643 18.9004 69.3864 17.4474 69.7596 17.478Z" fill="#E6C067"/>
<path d="M17.2759 35.5948C14.937 35.3573 12.8634 34.7903 10.6682 34.1924C11.4807 33.8615 12.1133 34.2312 12.7544 34.3152C15.7986 34.7137 15.4767 33.9221 17.2759 35.5948Z" fill="#E6C067"/>
<rect y="8" width="8" height="53" transform="rotate(-90 0 8)" fill="#E6C067"/>
<rect y="2" width="8" height="70" fill="#E6C067"/>
<rect x="89" y="112" width="8" height="53" transform="rotate(90 89 112)" fill="#E6C067"/>
<rect x="89" y="118" width="8" height="70" transform="rotate(-180 89 118)" fill="#E6C067"/>
</svg>
