<svg width="60" height="60" viewBox="0 0 60 60" fill="none" xmlns="http://www.w3.org/2000/svg">
<path d="M4.99993 27.4C3.74993 26.7 3.37493 25.175 4.07493 23.975L7.82493 17.5C8.09993 17 8.52493 16.65 8.99993 16.45L28.5749 5.45C28.9749 5.15 29.4749 5 29.9999 5C30.5249 5 31.0249 5.15 31.4249 5.45L51.1749 16.55C51.6499 16.8 52.0499 17.2 52.2749 17.7L55.8999 24C56.5999 25.2 56.1749 26.725 54.9999 27.4L52.4999 28.85V41.25C52.4999 42.2 51.9749 43.025 51.1749 43.45L31.4249 54.55C31.0249 54.85 30.5249 55 29.9999 55C29.4749 55 28.9749 54.85 28.5749 54.55L8.82493 43.45C8.02493 43.025 7.49993 42.2 7.49993 41.25V27.4C6.74993 27.825 5.79993 27.85 4.99993 27.4ZM29.9999 10.375V27.125L44.8999 18.75L29.9999 10.375ZM12.4999 39.775L27.4999 48.225V31.45L12.4999 23.025V39.775ZM47.4999 39.775V31.725L34.9999 38.975C34.1749 39.425 33.2499 39.4 32.4999 39V48.225L47.4999 39.775ZM34.6249 33.4L50.3249 24.325L48.8749 21.8L33.1749 30.875L34.6249 33.4Z" fill="#242424"/>
</svg>
