<svg width="60" height="60" viewBox="0 0 60 60" fill="none" xmlns="http://www.w3.org/2000/svg">
<path d="M4.99999 27.4C3.74999 26.7 3.37499 25.175 4.07499 23.975L7.82499 17.5C8.09999 17 8.52499 16.65 8.99999 16.45L28.575 5.45C28.975 5.15 29.475 5 30 5C30.525 5 31.025 5.15 31.425 5.45L51.175 16.55C51.65 16.8 52.05 17.2 52.275 17.7L55.9 24C56.6 25.2 56.175 26.725 55 27.4L52.5 28.85V41.25C52.5 42.2 51.975 43.025 51.175 43.45L31.425 54.55C31.025 54.85 30.525 55 30 55C29.475 55 28.975 54.85 28.575 54.55L8.82499 43.45C8.02499 43.025 7.49999 42.2 7.49999 41.25V27.4C6.74999 27.825 5.79999 27.85 4.99999 27.4ZM30 10.375V27.125L44.9 18.75L30 10.375ZM12.5 39.775L27.5 48.225V31.45L12.5 23.025V39.775ZM47.5 39.775V31.725L35 38.975C34.175 39.425 33.25 39.4 32.5 39V48.225L47.5 39.775ZM34.625 33.4L50.325 24.325L48.875 21.8L33.175 30.875L34.625 33.4Z" fill="white"/>
</svg>
