<svg width="61" height="60" viewBox="0 0 61 60" fill="none" xmlns="http://www.w3.org/2000/svg">
<path d="M2.54166 18.75H26.9167L28.7917 22.5H4.41666L2.54166 18.75ZM5.04166 26.25H29.4167L31.2917 30H6.91666L5.04166 26.25ZM45.6667 46.25C47.7417 46.25 49.4167 44.575 49.4167 42.5C49.4167 40.425 47.7417 38.75 45.6667 38.75C43.5917 38.75 41.9167 40.425 41.9167 42.5C41.9167 44.575 43.5917 46.25 45.6667 46.25ZM49.4167 23.75H43.1667V30H54.3167L49.4167 23.75ZM20.6667 46.25C22.7417 46.25 24.4167 44.575 24.4167 42.5C24.4167 40.425 22.7417 38.75 20.6667 38.75C18.5917 38.75 16.9167 40.425 16.9167 42.5C16.9167 44.575 18.5917 46.25 20.6667 46.25ZM50.6667 20L58.1667 30V42.5H53.1667C53.1667 46.65 49.8167 50 45.6667 50C41.5167 50 38.1667 46.65 38.1667 42.5H28.1667C28.1667 46.65 24.7917 50 20.6667 50C16.5167 50 13.1667 46.65 13.1667 42.5H8.16666V33.75H13.1667V37.5H15.0667C16.4417 35.975 18.4417 35 20.6667 35C22.8917 35 24.8917 35.975 26.2667 37.5H38.1667V15H8.16666C8.16666 12.225 10.3917 10 13.1667 10H43.1667V20H50.6667Z" fill="white"/>
</svg>
