<svg width="61" height="60" viewBox="0 0 61 60" fill="none" xmlns="http://www.w3.org/2000/svg">
<path d="M2.20837 18.75H26.5834L28.4584 22.5H4.08337L2.20837 18.75ZM4.70837 26.25H29.0834L30.9584 30H6.58337L4.70837 26.25ZM45.3334 46.25C47.4084 46.25 49.0834 44.575 49.0834 42.5C49.0834 40.425 47.4084 38.75 45.3334 38.75C43.2584 38.75 41.5834 40.425 41.5834 42.5C41.5834 44.575 43.2584 46.25 45.3334 46.25ZM49.0834 23.75H42.8334V30H53.9834L49.0834 23.75ZM20.3334 46.25C22.4084 46.25 24.0834 44.575 24.0834 42.5C24.0834 40.425 22.4084 38.75 20.3334 38.75C18.2584 38.75 16.5834 40.425 16.5834 42.5C16.5834 44.575 18.2584 46.25 20.3334 46.25ZM50.3334 20L57.8334 30V42.5H52.8334C52.8334 46.65 49.4834 50 45.3334 50C41.1834 50 37.8334 46.65 37.8334 42.5H27.8334C27.8334 46.65 24.4584 50 20.3334 50C16.1834 50 12.8334 46.65 12.8334 42.5H7.83337V33.75H12.8334V37.5H14.7334C16.1084 35.975 18.1084 35 20.3334 35C22.5584 35 24.5584 35.975 25.9334 37.5H37.8334V15H7.83337C7.83337 12.225 10.0584 10 12.8334 10H42.8334V20H50.3334Z" fill="#242424"/>
</svg>
