<svg width="272" height="80" viewBox="0 0 272 80" fill="none" xmlns="http://www.w3.org/2000/svg">
<path d="M13.3421 25.2147C13.3048 24.5187 12.8238 24.1703 12.3682 23.8867C11.5695 23.3895 11.0027 22.6615 10.3274 22.0427C10.014 21.7557 9.88803 21.3631 9.60236 20.9517C9.89643 21.0371 10.0458 21.1354 10.1809 21.2683C13.3633 24.3973 16.9008 24.6926 21.4273 24.9569C23.771 25.0938 25.5053 23.2805 26.1302 21.4457C26.837 19.3702 24.5462 17.2141 24.7848 14.2993C24.8095 13.9972 24.9815 13.7071 25.1656 13.4302C25.381 16.0105 25.6407 15.8644 26.6115 18.2286C28.2833 22.3002 26.4637 22.7997 25.7428 24.3977C25.546 24.8337 25.7442 25.0391 26.2154 25.1075C27.9262 25.3562 29.0348 24.3738 30.1476 23.3106C33.1119 20.4782 31.66 16.9939 32.9029 13.6723C33.0625 13.2459 33.3452 13.0616 33.7735 12.8738C31.8998 16.8649 35.2175 19.1911 31.0814 23.8965C30.8919 24.112 30.9185 24.3214 30.9991 24.5343C31.089 24.7721 31.3154 24.7123 31.4951 24.6753C35.4162 23.8691 35.2624 23.7912 38.6062 21.4352C39.6938 20.6688 40.2874 19.5319 40.7122 18.2869C41.079 17.2115 41.6296 16.2001 41.8638 15.0775C42.1086 13.9036 41.9048 14.1198 42.4304 12.1211C43.6074 14.2381 40.0756 20.2913 42.5942 19.5639C47.4656 18.1571 47.4226 17.4636 47.8406 17.5523C47.8722 17.7755 47.7464 17.9045 47.5932 18.0264C46.8146 18.6463 45.9876 19.1919 45.0717 19.5839C40.7803 21.4204 39.1048 23.0245 37.8131 23.7203C37.0661 24.1227 37.0866 25.2362 37.9858 25.5712C42.1057 27.1065 45.7102 26.3493 46.4036 26.7231C46.0157 27.1369 45.491 27.1739 44.9952 27.2304C41.4792 27.6313 38.0518 27.2325 34.7836 25.8712C33.9456 25.5221 33.2148 25.6731 32.4397 25.8187C31.4306 26.0081 26.996 26.3569 23.0568 26.2331C19.7327 26.1285 19.2696 25.721 19.0234 25.8937C18.8328 26.2405 19.8702 26.5569 19.0293 26.8795C19.3978 27.3406 19.7138 27.3777 20.2732 27.1085C22.627 25.9763 24.9204 27.1603 26.4278 26.9203C26.5114 27.0414 26.4586 27.139 26.3807 27.1828C25.06 27.9265 25.2119 29.7161 21.6878 29.1045C21.6763 29.1025 21.6627 29.1129 21.5978 29.1369C22.2988 30.1912 22.5377 32.9068 24.4391 32.7011C23.8715 33.3059 23.1563 33.5191 22.3346 33.4877C22.3128 33.7713 22.4754 33.9711 22.5616 34.1871C23.3279 36.1089 23.5907 37.6227 25.5771 37.5219C25.19 38.0329 24.729 38.3703 24.1356 38.5239C24.9263 39.8849 26.9312 41.2129 28.4906 39.4654C28.5937 39.6649 28.438 39.7885 28.3699 39.9401C27.4153 42.0652 25.478 41.429 24.4351 42.0613C24.3332 42.1231 24.2236 42.1891 24.1935 42.4057C25.1882 42.4683 25.1366 43.518 25.7028 44.0287C25.9497 44.2512 26.1274 44.5525 26.4577 44.7141C25.5938 45.0504 25.4201 45.1698 23.4955 44.4552C23.5315 44.5329 23.5418 44.6097 23.585 44.6405C24.8402 45.537 24.2969 47.4425 25.0134 48.2977C25.0974 48.398 25.145 48.5376 25.4093 48.5321C24.6894 47.4221 24.8812 46.0491 24.0858 44.8661C24.6015 45.1079 25.0582 45.1728 25.5225 45.1743C26.0072 45.1759 26.4259 44.9812 26.9574 44.6936C25.639 44.2684 25.4908 42.9749 24.7063 42.1855C26.0732 41.5567 25.6554 42.4591 26.9766 41.6287C27.3035 41.4233 27.644 41.295 28.0474 41.318C30.9629 41.4844 37.73 39.9399 43.0717 40.9165C45.0662 41.2811 45.5918 41.6643 46.6649 41.2961C46.8812 41.2219 47.1062 41.1639 47.386 41.258C46.5059 42.938 45.6596 42.9464 44.5259 42.6211C45.0742 44.1223 45.2884 45.6281 45.5266 47.1257C45.9481 49.7765 45.5109 50.8182 47.1278 54.0169C47.9445 55.6323 48.9751 56.6362 50.3238 57.431C50.0346 59.4889 50.8263 62.5181 51.5365 64.4882C52.3142 66.6457 52.7058 68.322 52.9375 68.624C53.5509 69.4233 52.3849 70.4007 51.5528 70.2747C51.156 70.214 51.3578 70.5987 51.4063 70.6327C52.267 71.2333 51.6991 71.8547 51.432 72.4693C51.2522 72.8833 51.024 73.0687 50.4853 73.004C48.2425 72.7373 47.1852 73.3273 47.6087 72.562C48.4466 71.0473 49.5044 70.4787 50.0622 69.1347C50.4002 68.3207 50.2141 67.522 50.025 66.736C48.7239 61.3269 47.7806 60.4665 46.8692 59.0955C46.1968 58.084 45.253 54.6871 41.5198 52.4135C39.9164 51.4369 39.8858 52.4311 39.4531 51.9653C38.882 51.3503 38.1442 51.4075 37.405 51.4421C36.2091 51.498 35.1983 52.0376 34.2124 52.6431C33.8676 52.8547 33.4825 52.989 33.1606 53.2492C32.6106 53.6937 31.989 52.2715 26.3497 53.043C26.0848 53.0793 25.8107 53.048 25.5054 53.048C25.2416 53.9768 25.0953 54.9101 25.0173 55.8475C24.6425 60.3551 26.1233 60.7988 25.5594 62.7346C24.7536 65.5003 25.9236 69.084 25.9888 70.25C26.0161 70.74 25.789 71.008 25.2952 71.0467C24.9426 71.074 24.9426 71.074 24.6796 71.248C25.0858 71.972 24.5173 72.498 24.2896 73.0993C24.2435 73.2213 24.1465 73.2433 24.0292 73.2513C23.0011 73.3187 21.9722 73.3493 20.9419 73.3253C20.8257 73.3227 20.7304 73.2853 20.6161 73.1513C21.1674 72.3873 21.5231 71.464 22.3426 70.8733C22.6234 70.6713 22.8119 70.4 22.9295 70.0647C24.0786 66.792 23.6203 65.7694 23.2966 64.2571C23.1688 63.6601 22.9834 63.0767 22.7207 62.5255C22.3385 61.7237 22.4808 60.8471 22.3454 60.0105C22.0738 58.3309 21.7845 55.6836 21.2518 54.2251C21.2208 54.1402 21.1781 54.0605 21.235 53.9555C21.7156 53.07 21.9199 52.1075 21.9952 51.2119C22.2892 51.4681 22.6189 51.7753 22.9699 52.0559C23.3922 52.3934 23.9165 52.4575 24.172 52.2083C22.7071 51.5967 24.0284 48.6994 23.2448 48.1171C23.4658 49.4244 22.9303 50.7415 23.5007 52.0339C22.6796 51.7908 22.3394 51.0671 21.8218 50.3971C21.8937 51.6061 21.6907 52.6825 21.1024 53.6501C20.5377 54.579 19.8484 55.4023 18.8532 55.9465C19.071 55.4047 19.806 54.6987 18.8308 53.2691C18.1333 54.105 17.7244 55.2077 16.4625 55.6283C16.6277 55.2107 16.8731 55.0002 16.9366 54.6916C17.4672 52.1101 15.9701 50.8898 16.0444 49.4166C15.0811 50.2937 14.1345 50.9699 12.7218 50.8285C14.0878 49.8729 13.8387 48.6707 13.8387 46.0909C12.9864 46.5604 12.1493 47.0311 11.1423 46.4779C12.8853 45.8025 12.6252 43.8837 13.16 42.1451C12.4207 42.4354 11.7591 42.7376 11.0014 42.6469C11.0131 42.5854 11.0104 42.5433 11.0236 42.5375C12.6991 41.8023 12.7685 39.2862 13.3664 37.7892C12.5886 37.978 11.8727 38.2645 11.0172 37.9385C12.5378 37.6218 13.1108 36.5263 13.6092 35.3392C13.8384 34.7934 14.1438 34.2797 14.4343 33.713C13.3562 33.4258 12.2964 33.212 11.2218 33.5156C9.6633 33.9559 9.52636 33.3969 8.6381 32.0425C8.91136 31.8041 9.32089 31.9113 9.45629 31.5572C9.48909 31.4715 9.5399 31.3785 9.42103 31.3116C9.21296 31.6183 9.21296 31.6183 8.5953 31.7627C7.9477 30.9553 8.83796 31.4459 12.5037 29.1281C13.6532 28.4013 14.9621 27.406 16.0767 27.1444C17.408 26.832 16.64 26.1989 17.309 26.1312C17.5008 26.1118 17.5582 25.9955 17.4902 25.8126C15.542 25.3248 13.4638 26.8047 8.76463 26.7078C8.52703 26.7029 8.25896 26.7363 7.99716 26.4775C9.89556 26.3677 11.6988 26.1389 13.3421 25.2147ZM19.5662 28.7253C20.1862 28.1625 20.8736 27.8559 21.5532 27.5447C22.2584 27.2216 23.021 27.1519 23.8044 27.1671C22.9332 26.4859 19.5531 27.8853 19.5662 28.7253ZM16.3362 28.8631C15.8178 28.7009 15.4232 28.6033 14.9968 28.5947C14.6218 28.5871 14.548 28.7752 14.5913 29.0725C14.616 29.2417 14.6444 29.4227 14.8148 29.5609C15.2797 29.3477 15.7523 29.1309 16.3362 28.8631ZM23.2226 47.5325C23.5501 48.2123 24.6206 48.7959 24.9914 48.4931C24.313 48.3196 23.7388 47.9873 23.2226 47.5325ZM23.1505 47.9818C23.1202 47.7813 23.0731 47.5904 22.8551 47.4229C22.8634 47.7039 22.9319 47.8818 23.1505 47.9818Z" fill="#6B0505"/>
<path d="M27.1194 73.272C27.3925 72.4127 27.9848 71.7993 28.4949 71.134C28.6391 70.946 28.8637 70.908 29.0778 70.8827C30.5623 70.7033 28.8617 69.322 31.496 67.8527C32.2835 67.414 32.6479 66.6231 33.0123 65.8849C34.3509 63.1732 35.2233 60.2899 35.797 57.3342C36.6849 52.76 35.3979 52.4357 36.0155 52.0937C37.0326 51.5305 38.0569 51.5086 39.0687 52.0753C39.9915 52.5921 40.4122 51.7318 41.0899 52.5107C40.2184 53.7299 38.5587 55.8442 38.898 58.0393C38.9021 58.0661 38.8984 58.0992 38.9127 58.1187C39.4487 58.8499 38.9387 59.2996 38.4738 59.7639C37.516 60.7204 36.8199 61.8539 36.1798 63.0391C33.4048 68.1767 34.3947 70.0513 32.3261 70.0453C32.0337 70.0447 31.7049 70.1507 31.9118 70.4687C32.4933 71.3627 31.4803 72.108 31.3445 72.7747C31.2693 73.144 31.0213 73.306 30.7151 73.2607C29.4906 73.0793 28.1305 73.4513 27.1194 73.272Z" fill="#6B0505"/>
<path d="M16.1543 51.0652C16.6626 52.0081 16.8475 52.9643 16.8046 53.9715C16.7849 54.4322 16.7447 53.8109 12.7558 56.0925C11.4958 56.8132 10.8582 57.9739 10.7115 59.4087C10.6167 60.3372 10.3463 61.2447 11.2751 62.129C11.92 62.7429 11.8708 63.4908 11.0986 63.9004C10.1915 64.3815 11.1702 65.22 11.4173 65.1477C12.1441 64.9352 12.5235 65.4819 12.9851 65.8553C13.1113 65.9574 13.1401 66.0434 13.0701 66.1999C11.7823 69.0807 11.8497 69.1653 11.5487 69.3047C10.965 68.8313 10.6094 68.1647 10.0154 67.7247C9.60541 67.4207 10.388 66.5173 9.16868 65.5517C7.09504 63.9096 8.74955 62.4441 9.46241 56.2531C9.59461 55.105 10.9952 54.5481 16.1543 51.0652Z" fill="#6B0505"/>
<path d="M10.8743 17.978C11.9966 20.1354 15.2474 22.662 18.4344 22.7579C19.6978 22.7959 20.9581 22.7843 22.2143 22.7053C23.9987 22.5931 25.602 19.2599 22.6899 17.6775C21.6532 17.1142 20.6974 16.4312 19.9494 15.4873C19.2908 14.6561 18.8616 13.0606 19.6954 11.7439C19.6954 13.2921 19.557 13.7278 21.1689 15.2989C22.4311 16.529 24.7116 16.9177 25.3352 19.1325C25.8044 20.7989 24.6721 21.9506 25.464 22.2159C25.0047 22.9582 24.5575 23.5588 23.5867 23.6548C22.278 23.7843 20.9764 23.9913 19.6579 23.995C19.283 23.9961 19.3014 24.2997 19.1612 24.5416C17.7022 24.4015 17.5438 24.4117 17.4706 24.2982C17.0006 23.5703 16.2532 23.5341 15.5592 23.6797C14.3968 23.9235 13.5158 23.4003 12.5992 22.8481C13.3454 22.3671 13.362 22.1014 12.7374 21.4113C11.9621 20.5549 11.2096 19.6801 10.8651 18.5429C10.8177 18.3861 10.6991 18.2233 10.8743 17.978Z" fill="#6B0505"/>
<path d="M41.7421 14.4603C41.5118 15.6448 41.6011 15.5963 41.1967 15.7824C40.237 16.2241 39.1863 16.4445 38.2599 16.9566C37.4829 17.3862 36.8521 18.0251 36.2131 18.6258C35.5207 19.2769 35.7559 20.314 36.6209 20.7666C37.0645 20.9987 37.5162 21.2149 37.9641 21.4381C36.9771 23.1659 35.4388 21.3991 33.1787 20.8733C33.3919 20.2958 33.4244 19.6937 33.4301 19.088C33.4346 18.6082 34.9513 18.6759 37.3127 15.9153C37.9794 15.1359 38.3113 14.1057 38.6121 13.1264C39.0145 11.8155 40.0023 8.43561 39.9555 7.07374C39.9485 6.86961 40.0017 6.73734 40.1977 6.66667C40.8385 7.04561 40.1579 12.1385 39.7284 13.4619C39.554 13.9993 39.9049 15.1652 41.2683 14.5053C41.4198 14.4319 41.5455 14.3373 41.7421 14.4603Z" fill="#6B0505"/>
<path d="M28.7611 9.29686C28.8518 9.85699 28.8332 10.3145 28.989 10.752C29.9929 13.5719 32.6493 15.8827 31.1396 19.3831C31.0487 19.5938 30.9082 19.8247 31.0854 20.0345C31.2861 20.272 31.4712 19.9573 31.7261 19.9723C31.6271 20.5193 31.4539 21.0331 31.1949 21.5178C31.1615 21.5802 31.0698 21.6265 30.9955 21.6496C29.6898 22.0565 28.418 22.5718 27.0211 22.9177C27.2249 22.4411 27.4498 22.0318 27.5508 21.5767C27.6095 21.3121 28.9265 21.5186 30.0259 18.7433C31.3591 15.3781 28.4306 13.5081 28.254 10.476C28.228 10.0302 28.4368 9.70819 28.7611 9.29686Z" fill="#6B0505"/>
<path d="M39.6961 22.8431C40.9586 21.888 41.1061 21.6354 42.0781 21.6477C43.9837 21.6719 46.7529 20.7673 46.8818 20.6999C46.9801 20.6484 47.0657 20.6955 47.1154 20.7963C46.6728 21.6496 42.3703 23.2812 39.6961 22.8431Z" fill="#6B0505"/>
<path d="M46.7276 11.652C46.9697 12.4105 43.2506 14.8028 42.825 14.9553C42.7438 14.1093 42.837 14.0143 43.5952 13.6735C45.9832 12.6003 46.4788 11.6316 46.7276 11.652Z" fill="#6B0505"/>
<path d="M11.7385 23.7299C10.1792 23.5716 8.79681 23.1936 7.33334 22.7949C7.87501 22.5744 8.29674 22.8209 8.72414 22.8768C10.7536 23.1425 10.539 22.6148 11.7385 23.7299Z" fill="#6B0505"/>
<path d="M79.6607 56.3333C79.9094 56.3022 80.0807 56.0689 80.174 55.6333C80.2674 55.1978 80.096 54.4822 79.6607 53.4867C79.5047 53.0822 79.178 52.3355 78.6807 51.2467C78.1827 50.1578 77.5914 48.8511 76.9074 47.3267C76.254 45.8022 75.538 44.2155 74.7607 42.5667C74.014 40.8867 73.2827 39.2845 72.5674 37.76C71.8827 36.2045 71.2607 34.8511 70.7007 33.7C70.1407 32.5178 69.736 31.6933 69.4874 31.2267C68.958 30.2311 68.476 29.5155 68.0407 29.08C67.636 28.6133 67.3248 28.3645 67.1071 28.3333H77.7007C77.514 28.3333 77.3894 28.5511 77.3274 28.9867C77.2647 29.4222 77.3894 30.1689 77.7007 31.2267C77.856 31.6622 78.1047 32.3778 78.4474 33.3733C78.8207 34.3689 79.256 35.5511 79.754 36.92C80.2514 38.2578 80.796 39.7045 81.3874 41.26C81.978 42.7845 82.5694 44.3245 83.1607 45.88C83.7827 47.4355 84.358 48.8978 84.8874 50.2667H84.934C85.4627 48.8667 86.038 47.3889 86.6607 45.8333C87.2827 44.2467 87.8893 42.6755 88.4807 41.12C89.0713 39.5645 89.6314 38.1178 90.1607 36.78C90.6894 35.4111 91.1407 34.2289 91.514 33.2333C91.8874 32.2378 92.136 31.5378 92.2607 31.1333C92.6027 30.1067 92.7427 29.3911 92.6807 28.9867C92.618 28.5511 92.478 28.3333 92.2607 28.3333H102.527C102.341 28.3333 102.045 28.5511 101.641 28.9867C101.267 29.3911 100.831 30.0911 100.334 31.0867C100.116 31.5222 99.7427 32.3155 99.214 33.4667C98.6847 34.6178 98.0627 35.9711 97.3473 37.5267C96.6313 39.0511 95.8847 40.6533 95.1073 42.3333C94.3607 43.9822 93.6447 45.5845 92.9607 47.14C92.276 48.6645 91.6694 50.0022 91.1407 51.1533C90.6427 52.2733 90.3007 53.0511 90.114 53.4867C89.7094 54.4822 89.538 55.1978 89.6007 55.6333C89.694 56.0689 89.8647 56.3022 90.114 56.3333H79.6607ZM119.921 56.8C117.463 56.8 115.41 56.5511 113.761 56.0533C112.143 55.5245 110.852 54.7778 109.887 53.8133C108.923 52.8178 108.239 51.62 107.834 50.22C107.43 48.82 107.227 47.2333 107.227 45.46C107.227 41.9445 108.207 39.16 110.167 37.1067C112.127 35.0533 115.13 34.0267 119.174 34.0267C121.539 34.0267 123.452 34.3533 124.914 35.0067C126.407 35.66 127.543 36.5311 128.321 37.62C129.099 38.7089 129.627 39.9222 129.907 41.26C130.219 42.5667 130.374 43.8889 130.374 45.2267V47.42C130.374 47.3267 129.939 47.2333 129.067 47.14C128.227 47.0155 126.797 46.9533 124.774 46.9533H113.947C113.947 48.6645 114.461 49.9555 115.487 50.8267C116.545 51.6667 118.257 52.0867 120.621 52.0867C122.612 52.0867 124.385 51.8533 125.941 51.3867C127.527 50.8889 128.679 50.4222 129.394 49.9867V51.3867L129.861 54.9333C129.27 55.3378 128.134 55.7578 126.454 56.1933C124.774 56.5978 122.597 56.8 119.921 56.8ZM115.674 42.94H123.747C123.747 42.2555 123.592 41.5867 123.281 40.9333C123.001 40.28 122.534 39.7511 121.881 39.3467C121.227 38.9111 120.325 38.6933 119.174 38.6933C118.023 38.6933 117.09 38.8645 116.374 39.2067C115.69 39.5489 115.177 39.9689 114.834 40.4667C114.523 40.9645 114.367 41.4778 114.367 42.0067C114.367 42.3178 114.461 42.5511 114.647 42.7067C114.834 42.8622 115.177 42.94 115.674 42.94ZM139.913 56.3333C140.131 56.3333 140.333 56.1155 140.52 55.68C140.738 55.2445 140.847 54.5289 140.847 53.5333V37.76C140.847 36.7645 140.738 36.0645 140.52 35.66C140.333 35.2245 140.131 34.9911 139.913 34.96C141.282 34.96 142.682 34.8667 144.113 34.68C145.545 34.4622 146.665 34.2445 147.473 34.0267V35.8933L147.38 36.6867L147.473 36.78C147.691 36.4378 148.033 36.0645 148.5 35.66C148.998 35.2245 149.62 34.8511 150.367 34.54C151.145 34.1978 152.047 34.0267 153.073 34.0267C154.598 34.0267 155.951 34.2445 157.133 34.68C158.315 35.0845 159.155 35.5045 159.653 35.94L158.253 42.1933V43.5933C157.787 42.94 157.149 42.2711 156.34 41.5867C155.562 40.9022 154.691 40.3267 153.727 39.86C152.793 39.3933 151.829 39.16 150.833 39.16C149.713 39.16 148.873 39.5645 148.313 40.3733C147.753 41.1822 147.473 42.4578 147.473 44.2V53.5333C147.473 54.5289 147.567 55.2445 147.753 55.68C147.971 56.1155 148.189 56.3333 148.407 56.3333H139.913ZM168.254 56.3333C168.472 56.3333 168.69 56.1155 168.907 55.68C169.125 55.2445 169.234 54.5289 169.234 53.5333V37.2933C169.234 36.2978 169.125 35.5822 168.907 35.1467C168.721 34.7111 168.519 34.4933 168.301 34.4933H175.861V53.5333C175.861 54.5289 175.954 55.2445 176.141 55.68C176.359 56.1155 176.577 56.3333 176.794 56.3333H168.254ZM172.034 30.9467C170.883 30.9467 169.965 30.6355 169.281 30.0133C168.597 29.3911 168.254 28.5355 168.254 27.4467C168.254 26.3578 168.581 25.5022 169.234 24.88C169.919 24.2578 170.852 23.9467 172.034 23.9467C173.217 23.9467 174.134 24.2578 174.787 24.88C175.472 25.5022 175.814 26.3578 175.814 27.4467C175.814 28.5355 175.472 29.3911 174.787 30.0133C174.134 30.6355 173.217 30.9467 172.034 30.9467ZM195.808 56.8C193.661 56.8 192.105 56.3489 191.141 55.4467C190.177 54.5133 189.695 53.0045 189.695 50.92V39.16H185.495V34.4933C186.925 34.4933 188.045 34.3222 188.855 33.98C189.663 33.6067 190.239 32.9689 190.581 32.0667C190.923 31.1645 191.095 29.9045 191.095 28.2867H196.321V34.4933H204.301C204.083 35.1155 203.865 35.8933 203.648 36.8267C203.461 37.7289 203.368 38.5067 203.368 39.16H196.321V48.3533C196.321 49.7845 196.43 50.7645 196.648 51.2933C196.865 51.8222 197.379 52.0867 198.188 52.0867C198.717 52.0867 199.292 51.9 199.915 51.5267C200.568 51.1533 201.19 50.7022 201.781 50.1733C202.403 49.6133 202.917 49.0845 203.321 48.5867V50.0333L203.788 54.56C203.415 54.8711 202.855 55.2133 202.108 55.5867C201.361 55.9289 200.443 56.2089 199.355 56.4267C198.297 56.6755 197.115 56.8 195.808 56.8ZM221.41 56.8C218.61 56.8 216.37 56.2555 214.69 55.1667C213.041 54.0467 212.217 52.2578 212.217 49.8C212.217 48.0889 212.652 46.7045 213.523 45.6467C214.395 44.5889 215.577 43.8111 217.07 43.3133C218.595 42.7845 220.321 42.52 222.25 42.52C223.681 42.52 224.895 42.6445 225.89 42.8933C226.917 43.1422 227.741 43.4067 228.363 43.6867C228.985 43.9667 229.39 44.1689 229.577 44.2933C229.577 42.9867 229.437 41.9289 229.157 41.12C228.877 40.28 228.363 39.6733 227.617 39.3C226.901 38.8955 225.89 38.6933 224.583 38.6933C222.685 38.6933 221.005 38.88 219.543 39.2533C218.081 39.6267 216.883 40.0622 215.95 40.56C215.048 41.0578 214.425 41.4778 214.083 41.82V40.42L213.617 35.8467C213.835 35.7222 214.41 35.52 215.343 35.24C216.277 34.96 217.552 34.6955 219.17 34.4467C220.788 34.1667 222.717 34.0267 224.957 34.0267C228.037 34.0267 230.385 34.4778 232.003 35.38C233.621 36.2511 234.725 37.5111 235.317 39.16C235.939 40.8089 236.25 42.8 236.25 45.1333V53.5333C236.25 54.4045 236.343 55.0422 236.53 55.4467C236.748 55.82 236.965 56.1155 237.183 56.3333H229.623V55.3533L229.717 54.4667L229.623 54.3733C229.375 54.6533 229.017 54.9333 228.55 55.2133C228.083 55.4933 227.508 55.7578 226.823 56.0067C226.139 56.2245 225.345 56.4111 224.443 56.5667C223.541 56.7222 222.53 56.8 221.41 56.8ZM223.603 52.0867C224.91 52.0867 225.999 51.9933 226.87 51.8067C227.772 51.5889 228.457 51.3089 228.923 50.9667C229.39 50.5933 229.623 50.1578 229.623 49.66C229.623 48.9445 229.079 48.3533 227.99 47.8867C226.932 47.42 225.485 47.1867 223.65 47.1867C221.877 47.1867 220.617 47.4355 219.87 47.9333C219.155 48.4311 218.797 49.0533 218.797 49.8C218.797 50.7333 219.217 51.3555 220.057 51.6667C220.897 51.9467 222.079 52.0867 223.603 52.0867ZM258.337 56.8C255.567 56.8 253.234 56.6445 251.337 56.3333C249.439 56.0222 248.132 55.7111 247.417 55.4V54L246.437 49.4267C247.245 50.0178 248.754 50.6089 250.963 51.2C253.172 51.7911 255.879 52.0867 259.083 52.0867C260.047 52.0867 260.81 52.0245 261.37 51.9C261.961 51.7755 262.381 51.5733 262.63 51.2933C262.879 51.0133 263.003 50.6555 263.003 50.22C263.003 49.6911 262.801 49.2867 262.397 49.0067C262.023 48.7267 261.339 48.5089 260.343 48.3533C259.347 48.1667 257.901 47.9489 256.003 47.7C253.607 47.3889 251.71 46.9533 250.31 46.3933C248.91 45.8022 247.914 45.0555 247.323 44.1533C246.763 43.22 246.483 42.0845 246.483 40.7467C246.483 39.5022 246.779 38.3822 247.37 37.3867C247.992 36.36 249.05 35.5511 250.543 34.96C252.067 34.3378 254.183 34.0267 256.89 34.0267C259.441 34.0267 261.681 34.1822 263.61 34.4933C265.539 34.8045 266.923 35.1155 267.763 35.4267V36.8267L268.697 40.9333C267.981 40.4667 266.581 39.9845 264.497 39.4867C262.412 38.9889 259.767 38.74 256.563 38.74C255.319 38.74 254.432 38.8645 253.903 39.1133C253.374 39.3622 253.11 39.7978 253.11 40.42C253.11 40.7311 253.187 40.9955 253.343 41.2133C253.53 41.4311 253.872 41.6333 254.37 41.82C254.867 42.0067 255.583 42.1933 256.517 42.38C257.45 42.5355 258.679 42.7067 260.203 42.8933C262.847 43.2355 264.839 43.7178 266.177 44.34C267.514 44.9311 268.417 45.6778 268.883 46.58C269.35 47.4511 269.583 48.5089 269.583 49.7533C269.583 51.34 269.179 52.6622 268.37 53.72C267.592 54.7467 266.363 55.5245 264.683 56.0533C263.034 56.5511 260.919 56.8 258.337 56.8Z" fill="#6B0505"/>
</svg>
