<svg width="61" height="88" viewBox="0 0 61 88" fill="none" xmlns="http://www.w3.org/2000/svg">
<path d="M8.37596 24.3116C8.3271 23.3993 7.69661 22.9428 7.09943 22.571C6.05248 21.9192 5.30958 20.9649 4.42439 20.154C4.01366 19.7777 3.84853 19.2632 3.47413 18.724C3.85956 18.8359 4.05534 18.9647 4.23239 19.1388C8.40373 23.2403 13.0405 23.6273 18.9735 23.9737C22.0456 24.1531 24.3187 21.7764 25.1377 19.3714C26.0642 16.651 23.0615 13.825 23.3743 10.0043C23.4067 9.60837 23.6322 9.22818 23.8734 8.86522C24.1557 12.2473 24.4962 12.0558 25.7687 15.1546C27.96 20.4914 25.5749 21.1461 24.63 23.2407C24.3721 23.8122 24.6319 24.0814 25.2494 24.1712C27.4919 24.4971 28.945 23.2094 30.4036 21.8158C34.289 18.1033 32.3859 13.5363 34.0151 9.18258C34.2242 8.62359 34.5947 8.38208 35.1562 8.13587C32.7002 13.3672 37.0489 16.4163 31.6275 22.5838C31.3792 22.8662 31.4141 23.1408 31.5197 23.4199C31.6376 23.7314 31.9342 23.6531 32.1698 23.6046C37.3093 22.5478 37.1077 22.4458 41.4905 19.3576C42.9161 18.3532 43.6941 16.863 44.251 15.231C44.7319 13.8216 45.4536 12.4958 45.7604 11.0244C46.0813 9.48565 45.8142 9.76903 46.503 7.14929C48.0458 9.9241 43.4165 17.8583 46.7178 16.9049C53.103 15.061 53.0466 14.1519 53.5945 14.2682C53.6359 14.5608 53.471 14.7298 53.2703 14.8896C52.2497 15.7021 51.1657 16.4173 49.9652 16.9311C44.3402 19.3383 42.1442 21.4408 40.4511 22.3529C39.472 22.8803 39.4988 24.3398 40.6774 24.7789C46.0775 26.7912 50.8021 25.7988 51.711 26.2887C51.2025 26.8312 50.5148 26.8796 49.8648 26.9537C45.2564 27.4792 40.764 26.9564 36.4802 25.1721C35.3817 24.7145 34.4239 24.9125 33.4079 25.1032C32.0853 25.3515 26.2726 25.8088 21.1094 25.6464C16.7523 25.5094 16.1454 24.9753 15.8226 25.2016C15.5729 25.6561 16.9326 26.0709 15.8304 26.4938C16.3134 27.0981 16.7275 27.1467 17.4609 26.7939C20.546 25.3098 23.552 26.8619 25.5278 26.5471C25.6374 26.7059 25.5682 26.8338 25.4662 26.8913C23.7351 27.8661 23.9342 30.2118 19.315 29.4101C19.2999 29.4075 19.2821 29.4212 19.197 29.4526C20.1159 30.8345 20.429 34.3939 22.9212 34.1243C22.1772 34.917 21.2398 35.1965 20.1628 35.1553C20.1341 35.5271 20.3474 35.789 20.4603 36.0721C21.4647 38.5911 21.8092 40.5752 24.4129 40.4431C23.9054 41.1129 23.3011 41.5552 22.5235 41.7564C23.5598 43.5404 26.1877 45.281 28.2316 42.9906C28.3668 43.252 28.1627 43.4141 28.0735 43.6128C26.8222 46.3982 24.2828 45.5643 22.916 46.3932C22.7825 46.4742 22.6388 46.5607 22.5993 46.8445C23.903 46.9265 23.8355 48.3024 24.5777 48.9718C24.9012 49.2635 25.1341 49.6584 25.5671 49.8703C24.4347 50.311 24.207 50.4675 21.6844 49.5309C21.7315 49.6328 21.7452 49.7334 21.8017 49.7737C23.447 50.9488 22.7348 53.4465 23.6739 54.5674C23.784 54.6989 23.8465 54.8819 24.1928 54.8747C23.2492 53.4197 23.5007 51.62 22.4581 50.0694C23.134 50.3863 23.7326 50.4715 24.3413 50.4735C24.9767 50.4756 25.5254 50.2204 26.222 49.8434C24.494 49.286 24.2997 47.5907 23.2714 46.5559C25.0632 45.7317 24.5154 46.9145 26.2473 45.826C26.6757 45.5568 27.1221 45.3887 27.6507 45.4188C31.4722 45.637 40.3421 43.6126 47.3437 44.8926C49.958 45.3705 50.6469 45.8727 52.0534 45.3901C52.3369 45.2928 52.6319 45.2168 52.9987 45.3402C51.8451 47.5423 50.7358 47.5532 49.2498 47.1268C49.9685 49.0946 50.2493 51.0682 50.5615 53.0312C51.114 56.5058 50.5408 57.8712 52.6603 62.0638C53.7307 64.1812 55.0815 65.497 56.8493 66.5388C56.4703 69.2362 57.508 73.2067 58.4388 75.7889C59.4582 78.6169 59.9715 80.8137 60.2752 81.2097C61.0792 82.2579 59.5509 83.539 58.4602 83.3732C57.94 83.2941 58.2046 83.7985 58.2682 83.8429C59.3963 84.63 58.652 85.4448 58.302 86.2506C58.0662 86.7931 57.7671 87.0353 57.061 86.9513C54.1212 86.6017 52.7354 87.3747 53.2905 86.3715C54.3888 84.3865 55.7752 83.6411 56.5065 81.8795C56.9494 80.8125 56.7055 79.7655 56.4577 78.7353C54.7523 71.6453 53.5159 70.5175 52.3213 68.7205C51.4399 67.3948 50.2028 62.9423 45.3096 59.9622C43.208 58.6822 43.1677 59.9853 42.6007 59.3747C41.8521 58.5685 40.885 58.6436 39.9161 58.6889C38.3486 58.7622 37.0237 59.4695 35.7314 60.2631C35.2795 60.5405 34.7748 60.7165 34.3528 61.0575C33.6319 61.6401 32.8171 59.776 25.4255 60.7873C25.0783 60.8348 24.7191 60.7938 24.3189 60.7938C23.9731 62.0113 23.7813 63.2346 23.6791 64.4632C23.1878 70.3716 25.1288 70.9531 24.3896 73.4904C23.3335 77.1155 24.867 81.8132 24.9524 83.3409C24.9883 83.9831 24.6906 84.3347 24.0433 84.385C23.5811 84.4208 23.5811 84.4208 23.2364 84.6493C23.7688 85.5979 23.0237 86.288 22.7252 87.0762C22.6648 87.2358 22.5377 87.2651 22.384 87.2752C21.0363 87.3637 19.6878 87.4034 18.3373 87.372C18.185 87.3684 18.0601 87.3199 17.9102 87.1442C18.6329 86.1428 19.0991 84.9325 20.1733 84.1586C20.5413 83.8935 20.7883 83.5377 20.9425 83.0986C22.4486 78.8084 21.848 77.4683 21.4236 75.486C21.2562 74.7036 21.0132 73.9388 20.6688 73.2163C20.1678 72.1655 20.3544 71.0164 20.177 69.9198C19.8209 67.7184 19.4417 64.2485 18.7434 62.3367C18.7028 62.2254 18.6469 62.121 18.7216 61.9834C19.3514 60.8227 19.6192 59.5611 19.7178 58.3873C20.1033 58.7231 20.5354 59.1257 20.9954 59.4935C21.5489 59.9358 22.2362 60.0198 22.5711 59.6932C20.651 58.8916 22.3829 55.0939 21.3558 54.3308C21.6455 56.0442 20.9436 57.7707 21.6912 59.4647C20.6149 59.1459 20.169 58.1974 19.4905 57.3191C19.5848 58.9039 19.3188 60.3147 18.5477 61.5831C17.8075 62.8006 16.904 63.8797 15.5996 64.593C15.8851 63.8828 16.8484 62.9574 15.5702 61.0836C14.6559 62.1793 14.12 63.6247 12.466 64.176C12.6825 63.6286 13.0042 63.3527 13.0873 62.9481C13.7829 59.5646 11.8205 57.965 11.918 56.034C10.6553 57.1836 9.41453 58.0699 7.56293 57.8847C9.35332 56.6322 9.02681 55.0564 9.02681 51.6748C7.90962 52.2902 6.81244 52.9072 5.4926 52.1822C7.77721 51.2968 7.43618 48.7817 8.13716 46.503C7.16823 46.8835 6.30098 47.2795 5.30789 47.1607C5.3232 47.0801 5.3197 47.0249 5.33705 47.0173C7.53311 46.0537 7.62408 42.7557 8.4077 40.7935C7.38829 41.041 6.4499 41.4165 5.32856 40.9892C7.32172 40.5741 8.07282 39.1381 8.72608 37.5822C9.02639 36.8668 9.42676 36.1934 9.80749 35.4507C8.39439 35.0742 7.00521 34.794 5.59675 35.1919C3.55401 35.769 3.37449 35.0363 2.21019 33.2611C2.56839 32.9486 3.10515 33.0892 3.28268 32.625C3.32563 32.5127 3.3922 32.3908 3.23641 32.3031C2.9637 32.7051 2.9637 32.7051 2.15411 32.8943C1.3053 31.836 2.47218 32.4791 7.27696 29.4411C8.78362 28.4884 10.4994 27.1838 11.9603 26.8409C13.7053 26.4315 12.6987 25.6017 13.5756 25.5129C13.827 25.4874 13.9022 25.335 13.813 25.0953C11.2594 24.456 8.53548 26.3956 2.37604 26.2687C2.06459 26.2623 1.71326 26.3061 1.37012 25.9668C3.85841 25.8229 6.22201 25.5229 8.37596 24.3116ZM16.5342 28.9131C17.3467 28.1754 18.2478 27.7736 19.1385 27.3656C20.063 26.9421 21.0624 26.8507 22.0893 26.8706C20.9474 25.9778 16.5169 27.8121 16.5342 28.9131ZM12.3004 29.0936C11.621 28.8811 11.1037 28.7531 10.5447 28.7419C10.0533 28.732 9.95647 28.9785 10.0133 29.3682C10.0457 29.5899 10.0829 29.8272 10.3062 30.0084C10.9156 29.729 11.535 29.4448 12.3004 29.0936ZM21.3267 53.5645C21.756 54.4555 23.1592 55.2204 23.6452 54.8235C22.7558 54.5962 22.0032 54.1606 21.3267 53.5645ZM21.2322 54.1533C21.1924 53.8906 21.1307 53.6404 20.845 53.4207C20.8559 53.7891 20.9456 54.0223 21.2322 54.1533Z" fill="#6B0505"/>
<path d="M26.4344 87.3025C26.7923 86.1754 27.5687 85.3719 28.2373 84.5002C28.4264 84.2537 28.7207 84.204 29.0014 84.1701C30.9472 83.935 28.718 82.1249 32.171 80.1992C33.2032 79.6236 33.6807 78.5873 34.1584 77.6196C35.9129 74.0653 37.0565 70.2861 37.8085 66.4119C38.9723 60.4163 37.2854 59.9912 38.0948 59.543C39.428 58.8048 40.7705 58.7761 42.0968 59.5188C43.3064 60.1962 43.8578 59.0686 44.746 60.0895C43.6038 61.6877 41.4284 64.4589 41.873 67.3361C41.8784 67.3713 41.8736 67.4146 41.8924 67.4402C42.5949 68.3986 41.9265 68.988 41.317 69.5966C40.0616 70.8503 39.1492 72.3361 38.3102 73.8895C34.6729 80.6236 35.9703 83.0805 33.259 83.0727C32.8758 83.0717 32.4448 83.2109 32.7159 83.6277C33.4781 84.7992 32.1504 85.7767 31.9724 86.6502C31.8738 87.1342 31.5488 87.347 31.1475 87.2876C29.5424 87.0498 27.7597 87.5371 26.4344 87.3025Z" fill="#6B0505"/>
<path d="M12.0621 58.1948C12.7283 59.4307 12.9706 60.684 12.9144 62.0043C12.8887 62.6081 12.8359 61.7938 7.60746 64.7843C5.95593 65.729 5.12025 67.2504 4.92802 69.131C4.80362 70.348 4.44922 71.5375 5.66677 72.6966C6.51202 73.5013 6.4475 74.4815 5.43538 75.0184C4.24632 75.6491 5.52917 76.7481 5.85309 76.6534C6.80564 76.3748 7.30294 77.0914 7.90813 77.5809C8.07349 77.7146 8.11114 77.8274 8.01946 78.0325C6.33142 81.8082 6.41985 81.9193 6.02539 82.1025C5.26025 81.4817 4.79416 80.6077 4.01553 80.031C3.47811 79.633 4.50392 78.4486 2.9057 77.1829C0.187699 75.0305 2.35635 73.1096 3.2907 64.9949C3.46396 63.4899 5.29983 62.76 12.0621 58.1948Z" fill="#6B0505"/>
<path d="M5.14129 14.8261C6.61228 17.6539 10.8733 20.9656 15.0506 21.0914C16.7065 21.1412 18.3585 21.1259 20.005 21.0224C22.3439 20.8754 24.4455 16.5064 20.6285 14.4323C19.2695 13.6939 18.0167 12.7987 17.0364 11.5615C16.1731 10.472 15.6105 8.38072 16.7034 6.65479C16.7034 8.6841 16.522 9.25526 18.6348 11.3145C20.2892 12.9269 23.2783 13.4363 24.0958 16.3394C24.7108 18.5237 23.2266 20.0332 24.2646 20.3809C23.6625 21.3538 23.0764 22.1411 21.8039 22.267C20.0886 22.4366 18.3825 22.7081 16.6543 22.7129C16.1629 22.7142 16.187 23.1122 16.0032 23.4293C14.0909 23.2457 13.8833 23.259 13.7872 23.1102C13.1712 22.1562 12.1916 22.1087 11.2819 22.2996C9.7583 22.6192 8.60364 21.9334 7.40223 21.2096C8.38014 20.5791 8.40207 20.2308 7.58326 19.3263C6.5671 18.2038 5.5807 17.0572 5.12918 15.5666C5.06707 15.3611 4.91159 15.1476 5.14129 14.8261Z" fill="#6B0505"/>
<path d="M45.6009 10.2155C45.299 11.768 45.4161 11.7045 44.886 11.9484C43.6281 12.5273 42.2509 12.8162 41.0367 13.4875C40.0182 14.0505 39.1913 14.8879 38.3538 15.6753C37.4462 16.5287 37.7546 17.8881 38.8884 18.4814C39.4697 18.7855 40.0618 19.0689 40.649 19.3616C39.3552 21.6261 37.3389 19.3104 34.3765 18.6212C34.656 17.8642 34.6985 17.0751 34.706 16.2812C34.7119 15.6522 36.6999 15.741 39.795 12.1226C40.6689 11.101 41.104 9.75059 41.4982 8.46701C42.0257 6.74885 43.3205 2.31859 43.2591 0.533559C43.2499 0.266025 43.3197 0.0926522 43.5766 0C44.4166 0.496695 43.5244 7.1721 42.9615 8.90671C42.7329 9.61112 43.1928 11.1394 44.9798 10.2744C45.1784 10.1782 45.3433 10.0543 45.6009 10.2155Z" fill="#6B0505"/>
<path d="M28.5863 3.44751C28.7052 4.18174 28.6808 4.78144 28.885 5.35488C30.2009 9.05097 33.6828 12.0799 31.7039 16.6679C31.5847 16.9442 31.4006 17.2468 31.6329 17.5218C31.8959 17.8331 32.1385 17.4206 32.4726 17.4403C32.3429 18.1573 32.1158 18.8307 31.7763 19.466C31.7326 19.5478 31.6124 19.6085 31.5151 19.6388C29.8036 20.1722 28.1366 20.8476 26.3057 21.3009C26.5727 20.6762 26.8675 20.1397 26.9999 19.5432C27.0769 19.1964 28.8031 19.467 30.2441 15.8295C31.9915 11.4184 28.1531 8.9673 27.9216 4.99308C27.8875 4.40879 28.1612 3.98668 28.5863 3.44751Z" fill="#6B0505"/>
<path d="M42.9192 21.2031C44.574 19.9512 44.7673 19.6202 46.0413 19.6363C48.5392 19.668 52.1689 18.4824 52.3378 18.3939C52.4667 18.3264 52.5788 18.3882 52.644 18.5203C52.0639 19.6388 46.4244 21.7774 42.9192 21.2031Z" fill="#6B0505"/>
<path d="M52.1356 6.53447C52.4529 7.52865 47.5781 10.6643 47.0203 10.8643C46.9139 9.75537 47.036 9.6308 48.0298 9.18416C51.1599 7.77739 51.8095 6.50773 52.1356 6.53447Z" fill="#6B0505"/>
<path d="M6.27401 22.3655C4.23018 22.158 2.41822 21.6625 0.5 21.14C1.21001 20.8509 1.76279 21.174 2.32298 21.2473C4.98309 21.5956 4.70176 20.9039 6.27401 22.3655Z" fill="#6B0505"/>
</svg>
