<svg xmlns="http://www.w3.org/2000/svg" width="272" height="81" fill="none"><path fill="#242424" d="M13.342 25.715c-.037-.696-.518-1.045-.974-1.328-.799-.497-1.365-1.226-2.04-1.844-.314-.287-.44-.68-.726-1.091.294.085.444.183.579.316 3.182 3.13 6.72 3.425 11.246 3.689 2.344.137 4.078-1.677 4.703-3.511.707-2.076-1.584-4.232-1.345-7.147.024-.302.197-.592.38-.869.216 2.58.476 2.434 1.447 4.799 1.671 4.071-.148 4.57-.87 6.169-.196.436.002.641.473.71 1.711.248 2.82-.734 3.933-1.797 2.964-2.833 1.512-6.317 2.755-9.639.16-.426.442-.61.87-.798-1.873 3.99 1.444 6.317-2.692 11.022-.19.216-.162.425-.082.638.09.238.316.178.496.141 3.921-.806 3.767-.884 7.111-3.24 1.088-.766 1.681-1.903 2.106-3.148.367-1.075.918-2.087 1.152-3.21.245-1.173.04-.957.566-2.956 1.177 2.117-2.354 8.17.164 7.443 4.872-1.407 4.829-2.1 5.247-2.012.031.224-.095.352-.248.474-.778.62-1.605 1.166-2.521 1.558-4.292 1.836-5.967 3.44-7.259 4.136-.747.403-.726 1.516.173 1.851 4.12 1.535 7.724.778 8.418 1.152-.388.414-.913.45-1.409.507-3.516.401-6.943.003-10.211-1.359-.838-.349-1.57-.198-2.344-.052-1.01.19-5.444.538-9.383.414-3.324-.105-3.787-.512-4.034-.34-.19.348.847.664.006.986.369.462.685.499 1.244.23 2.354-1.133 4.647.051 6.155-.189.083.121.03.219-.047.263-1.32.744-1.17 2.533-4.693 1.922-.012-.003-.025.008-.09.032.7 1.054.94 3.77 2.841 3.564-.567.605-1.283.818-2.104.787-.022.283.14.483.227.7.766 1.92 1.029 3.435 3.015 3.334-.387.51-.848.848-1.441 1.002.79 1.36 2.795 2.689 4.355.941.103.2-.053.323-.121.475-.955 2.125-2.892 1.489-3.935 2.121-.102.062-.211.128-.241.345.994.062.943 1.112 1.509 1.623.247.222.424.523.755.685-.864.336-1.038.456-2.962-.259.036.078.046.155.09.186 1.254.896.71 2.802 1.427 3.657.084.1.132.24.396.234-.72-1.11-.528-2.483-1.323-3.666.516.242.972.307 1.437.308.484.002.903-.193 1.434-.48-1.318-.426-1.466-1.72-2.25-2.509 1.366-.628.948.274 2.27-.556.326-.206.667-.334 1.07-.311 2.916.166 9.683-1.378 15.025-.401 1.994.364 2.52.747 3.593.38.216-.075.441-.133.721-.039-.88 1.68-1.726 1.688-2.86 1.363.548 1.501.762 3.007 1 4.505.422 2.65-.015 3.692 1.602 6.89.816 1.616 1.847 2.62 3.196 3.415-.29 2.058.502 5.087 1.212 7.057.778 2.158 1.17 3.834 1.401 4.136.614.8-.552 1.777-1.384 1.65-.397-.06-.195.325-.147.359.861.6.293 1.222.026 1.836-.18.414-.408.6-.947.535-2.242-.267-3.3.323-2.876-.442.838-1.515 1.895-2.083 2.453-3.427.338-.814.152-1.613-.037-2.399-1.301-5.41-2.244-6.27-3.156-7.64-.672-1.012-1.616-4.409-5.35-6.682-1.602-.977-1.633.017-2.066-.449-.57-.615-1.309-.558-2.048-.523-1.196.056-2.207.596-3.193 1.201-.344.212-.73.346-1.051.606-.55.445-1.172-.977-6.811-.206-.265.036-.54.005-.844.005-.264.929-.41 1.862-.489 2.8-.375 4.507 1.106 4.95.542 6.887-.805 2.765.365 6.349.43 7.515.027.49-.2.758-.694.797-.352.027-.352.027-.615.201.406.724-.163 1.25-.39 1.851-.046.122-.143.144-.26.152a35 35 0 0 1-3.088.074c-.116-.002-.212-.04-.326-.174.552-.764.907-1.687 1.727-2.278.28-.202.469-.473.587-.808 1.149-3.273.69-4.296.367-5.808a7.8 7.8 0 0 0-.576-1.732c-.383-.801-.24-1.678-.375-2.514-.272-1.68-.561-4.327-1.094-5.786-.031-.085-.074-.165-.017-.27.48-.885.685-1.847.76-2.743.294.256.624.563.975.844.422.337.947.402 1.202.152-1.465-.611-.144-3.509-.927-4.09.22 1.306-.315 2.624.256 3.916-.821-.243-1.162-.967-1.68-1.637.073 1.21-.13 2.285-.719 3.253-.564.929-1.254 1.752-2.249 2.297.218-.542.953-1.248-.022-2.678-.698.836-1.107 1.939-2.369 2.36.166-.418.411-.629.475-.937.53-2.582-.967-3.802-.893-5.275-.963.877-1.91 1.553-3.322 1.411 1.366-.955 1.117-2.157 1.117-4.737-.853.47-1.69.94-2.697.387 1.743-.675 1.483-2.594 2.018-4.333-.74.29-1.4.593-2.158.502.011-.062.008-.104.022-.11 1.675-.735 1.745-3.25 2.342-4.748-.777.189-1.493.475-2.349.15 1.52-.317 2.094-1.413 2.592-2.6.23-.546.535-1.06.825-1.626-1.078-.287-2.138-.501-3.212-.197-1.559.44-1.696-.12-2.584-1.474.273-.238.683-.13.818-.485.033-.086.084-.179-.035-.245-.208.306-.208.306-.826.45-.647-.807.243-.316 3.909-2.634 1.15-.727 2.458-1.722 3.573-1.984 1.331-.312.563-.945 1.232-1.013.192-.02.25-.136.181-.318-1.948-.488-4.026.992-8.725.895-.238-.005-.506.028-.768-.23 1.899-.11 3.702-.34 5.345-1.263m6.224 3.51c.62-.562 1.308-.87 1.987-1.18.706-.323 1.468-.393 2.252-.378-.872-.681-4.252.718-4.239 1.558m-3.23.138c-.518-.162-.913-.26-1.34-.268-.374-.008-.448.18-.405.478.025.169.054.35.224.488zm6.887 18.67c.327.68 1.398 1.263 1.768.96-.678-.173-1.252-.506-1.768-.96m-.072.449c-.03-.2-.078-.392-.296-.56.008.282.077.46.296.56"/><path fill="#242424" d="M27.12 73.772c.273-.86.865-1.473 1.375-2.138.144-.188.369-.226.583-.251 1.484-.18-.216-1.561 2.418-3.03.788-.439 1.152-1.23 1.516-1.968 1.339-2.712 2.211-5.595 2.785-8.55.888-4.575-.399-4.9.219-5.241 1.017-.563 2.041-.585 3.053-.019.923.517 1.343-.343 2.021.436-.872 1.219-2.531 3.333-2.192 5.528.004.027 0 .06.015.08.536.73.026 1.18-.44 1.645-.957.956-1.653 2.09-2.293 3.275-2.775 5.138-1.785 7.012-3.854 7.006-.292 0-.621.106-.414.424.581.894-.432 1.639-.567 2.306-.076.369-.324.531-.63.486-1.224-.182-2.584.19-3.596.011M16.154 51.565c.509.943.694 1.9.65 2.907-.019.46-.06-.161-4.048 2.12-1.26.721-1.898 1.882-2.044 3.317-.095.928-.366 1.836.563 2.72.645.614.596 1.362-.176 1.771-.907.481.071 1.32.319 1.248.726-.213 1.106.334 1.567.707.127.102.155.188.085.345-1.288 2.88-1.22 2.965-1.521 3.105-.584-.474-.94-1.14-1.533-1.58-.41-.304.372-1.208-.847-2.173-2.074-1.642-.42-3.108.294-9.299.132-1.148 1.532-1.705 6.692-5.188M10.874 18.478c1.123 2.157 4.373 4.684 7.56 4.78 1.264.038 2.524.026 3.78-.053 1.785-.112 3.388-3.445.476-5.027-1.037-.564-1.993-1.247-2.74-2.19-.66-.832-1.088-2.427-.255-3.744 0 1.548-.138 1.984 1.474 3.555 1.262 1.23 3.543 1.619 4.166 3.834.47 1.666-.663 2.818.13 3.083-.46.742-.907 1.343-1.878 1.439-1.309.13-2.61.336-3.93.34-.374.001-.355.305-.496.547-1.459-.14-1.617-.13-1.69-.244-.47-.728-1.218-.764-1.912-.618-1.162.244-2.043-.28-2.96-.832.746-.48.763-.747.138-1.437-.775-.856-1.527-1.73-1.872-2.868-.047-.157-.166-.32.01-.565M41.742 14.96c-.23 1.185-.14 1.136-.545 1.322-.96.442-2.01.663-2.937 1.175-.777.43-1.408 1.068-2.047 1.669-.692.65-.457 1.688.408 2.14.444.233.895.449 1.343.672-.987 1.728-2.525-.039-4.785-.565.213-.577.245-1.18.251-1.785.005-.48 1.521-.412 3.883-3.173.666-.78.998-1.81 1.3-2.789.402-1.31 1.39-4.69 1.343-6.052-.008-.204.046-.337.242-.407.64.379-.04 5.472-.47 6.795-.174.537.177 1.703 1.54 1.043.152-.073.278-.168.474-.045M28.761 9.797c.09.56.072 1.018.228 1.455 1.004 2.82 3.66 5.13 2.15 8.631-.09.21-.23.442-.053.652.2.237.385-.078.64-.063a5.2 5.2 0 0 1-.531 1.546c-.033.062-.125.108-.2.132-1.305.407-2.577.922-3.974 1.268.204-.477.429-.886.53-1.341.059-.265 1.376-.058 2.475-2.834 1.333-3.365-1.595-5.235-1.772-8.267-.026-.446.183-.768.507-1.18M39.696 23.343c1.263-.955 1.41-1.208 2.382-1.195 1.906.024 4.675-.88 4.804-.948.098-.052.184-.005.233.096-.442.854-4.745 2.485-7.419 2.047M46.728 12.152c.242.759-3.477 3.15-3.903 3.303-.081-.846.012-.94.77-1.281 2.388-1.074 2.884-2.042 3.133-2.022M11.739 24.23c-1.56-.158-2.942-.536-4.406-.935.542-.22.964.026 1.391.082 2.03.265 1.815-.262 3.015.853M79.66 56.833q.374-.046.514-.7.14-.652-.513-2.146-.234-.607-.98-2.24a610 610 0 0 1-1.774-3.92 147 147 0 0 0-2.146-4.76 258 258 0 0 0-2.194-4.807 119 119 0 0 0-1.866-4.06 68 68 0 0 0-1.214-2.473q-.793-1.494-1.446-2.147-.607-.7-.934-.747h10.594q-.28 0-.374.654-.094.653.374 2.24.233.652.746 2.146.561 1.494 1.307 3.547a634 634 0 0 0 1.633 4.34q.886 2.288 1.774 4.62a413 413 0 0 1 1.726 4.387h.047q.793-2.1 1.727-4.434a491 491 0 0 0 1.82-4.713q.885-2.333 1.68-4.34a397 397 0 0 0 1.353-3.547q.56-1.492.747-2.1.513-1.54.42-2.146-.095-.654-.42-.654h10.266q-.28 0-.886.654-.561.606-1.307 2.1a93 93 0 0 0-1.12 2.38q-.794 1.725-1.867 4.06a930 930 0 0 0-2.24 4.806 484 484 0 0 0-2.146 4.807 535 535 0 0 1-1.82 4.013q-.747 1.68-1.027 2.334-.607 1.492-.513 2.146.14.654.513.7zm40.261.467q-3.687 0-6.16-.747-2.427-.792-3.874-2.24-1.446-1.493-2.053-3.593-.606-2.1-.607-4.76 0-5.274 2.94-8.353 2.94-3.08 9.007-3.08 3.547 0 5.74.98 2.24.98 3.407 2.613a9.6 9.6 0 0 1 1.586 3.64q.468 1.96.467 3.967v2.193q0-.14-1.307-.28-1.26-.186-4.293-.187h-10.827q0 2.566 1.54 3.874 1.588 1.26 5.134 1.26 2.986 0 5.32-.7 2.38-.747 3.453-1.4v1.4l.467 3.546q-.887.608-3.407 1.26-2.52.607-6.533.607m-4.247-13.86h8.073q0-1.026-.466-2.007-.42-.98-1.4-1.586-.98-.654-2.707-.654t-2.8.514q-1.026.513-1.54 1.26-.467.746-.467 1.54 0 .465.28.7.281.233 1.027.233m24.239 13.393q.327 0 .607-.653.327-.653.327-2.147V38.26q0-1.492-.327-2.1-.28-.653-.607-.7a32.5 32.5 0 0 0 4.2-.28q2.148-.327 3.36-.653v1.866l-.093.794.093.093q.327-.513 1.027-1.12.747-.653 1.867-1.12 1.167-.513 2.706-.513 2.287 0 4.06.653 1.773.607 2.52 1.26l-1.4 6.253v1.4q-.7-.98-1.913-2.006a11.6 11.6 0 0 0-2.613-1.727 6.4 6.4 0 0 0-2.894-.7q-1.68 0-2.52 1.213-.84 1.215-.84 3.827v9.333q0 1.494.28 2.147.327.653.654.653zm28.341 0q.327 0 .653-.653.327-.653.327-2.147v-16.24q0-1.492-.327-2.146-.279-.654-.606-.654h7.56v19.04q0 1.494.28 2.147.327.653.653.653zm3.78-25.386q-1.727 0-2.753-.934t-1.027-2.566q0-1.635.98-2.567 1.027-.933 2.8-.933 1.774 0 2.753.933 1.027.933 1.027 2.567 0 1.633-1.027 2.566-.979.934-2.753.934M195.808 57.3q-3.22 0-4.667-1.353-1.446-1.401-1.446-4.527V39.66h-4.2v-4.667q2.145 0 3.36-.513 1.212-.56 1.726-1.913.513-1.354.514-3.78h5.226v6.206h7.98q-.327.933-.653 2.334-.28 1.353-.28 2.333h-7.047v9.193q0 2.147.327 2.94.326.794 1.54.794.793 0 1.727-.56a11 11 0 0 0 1.866-1.354 14.4 14.4 0 0 0 1.54-1.586v1.446l.467 4.527q-.56.466-1.68 1.027-1.12.513-2.753.84-1.587.372-3.547.373m25.602 0q-4.2 0-6.72-1.633-2.473-1.68-2.473-5.367 0-2.566 1.306-4.153 1.308-1.587 3.547-2.334 2.287-.793 5.18-.793 2.147 0 3.64.373 1.54.374 2.473.794t1.214.606q0-1.96-.42-3.173-.42-1.26-1.54-1.82-1.074-.606-3.034-.607-2.847 0-5.04.56-2.193.561-3.593 1.307-1.353.747-1.867 1.26v-1.4l-.466-4.573q.327-.187 1.726-.607t3.827-.793q2.427-.42 5.787-.42 4.62 0 7.046 1.353 2.426 1.307 3.314 3.78.933 2.474.933 5.973v8.4q0 1.307.28 1.914.326.56.653.886h-7.56v-.98l.094-.886-.094-.094q-.372.42-1.073.84-.7.42-1.727.794-1.026.327-2.38.56t-3.033.233m2.193-4.713q1.96 0 3.267-.28 1.353-.327 2.053-.84.7-.561.7-1.307 0-1.073-1.633-1.773-1.587-.7-4.34-.7-2.66 0-3.78.746-1.073.747-1.073 1.867 0 1.4 1.26 1.867 1.26.42 3.546.42m34.734 4.713q-4.155 0-7-.467-2.847-.466-3.92-.933v-1.4l-.98-4.573q1.212.886 4.526 1.773t8.12.887q1.446 0 2.287-.187.887-.187 1.26-.607t.373-1.073q0-.793-.606-1.213-.56-.42-2.054-.654-1.493-.28-4.34-.653-3.594-.467-5.693-1.307-2.1-.885-2.987-2.24-.84-1.4-.84-3.406 0-1.867.887-3.36.933-1.54 3.173-2.427 2.286-.933 6.347-.933 3.826 0 6.72.466t4.153.934v1.4l.934 4.106q-1.074-.7-4.2-1.446-3.128-.747-7.934-.747-1.866 0-2.66.373-.793.374-.793 1.307 0 .466.233.793.28.327 1.027.607t2.147.56q1.4.233 3.686.513 3.967.514 5.974 1.447 2.006.887 2.706 2.24.7 1.307.7 3.173 0 2.381-1.213 3.967-1.167 1.54-3.687 2.333-2.473.747-6.346.747"/></svg>