<svg width="272" height="81" viewBox="0 0 272 81" fill="none" xmlns="http://www.w3.org/2000/svg">
<path d="M13.3421 25.7147C13.3049 25.0187 12.8239 24.6703 12.3683 24.3867C11.5695 23.8895 11.0027 23.1615 10.3274 22.5427C10.0141 22.2557 9.88806 21.8631 9.60239 21.4517C9.89646 21.5371 10.0459 21.6354 10.1809 21.7683C13.3633 24.8973 16.9009 25.1926 21.4273 25.4569C23.7711 25.5938 25.5053 23.7805 26.1302 21.9457C26.837 19.8702 24.5462 17.7141 24.7848 14.7993C24.8095 14.4972 24.9815 14.2071 25.1656 13.9302C25.381 16.5105 25.6407 16.3644 26.6115 18.7286C28.2833 22.8002 26.4637 23.2997 25.7428 24.8977C25.5461 25.3337 25.7443 25.5391 26.2154 25.6075C27.9262 25.8562 29.0349 24.8738 30.1477 23.8106C33.1119 20.9782 31.6601 17.4939 32.9029 14.1723C33.0625 13.7459 33.3452 13.5616 33.7735 13.3738C31.8998 17.3649 35.2175 19.6911 31.0814 24.3965C30.8919 24.612 30.9185 24.8214 30.9991 25.0343C31.0891 25.2721 31.3154 25.2123 31.4951 25.1753C35.4162 24.3691 35.2624 24.2912 38.6062 21.9352C39.6938 21.1688 40.2874 20.0319 40.7122 18.7869C41.0791 17.7115 41.6297 16.7001 41.8638 15.5775C42.1086 14.4036 41.9048 14.6198 42.4304 12.6211C43.6074 14.7381 40.0756 20.7913 42.5942 20.0639C47.4657 18.6571 47.4226 17.9636 47.8407 18.0523C47.8722 18.2755 47.7464 18.4045 47.5933 18.5264C46.8147 19.1463 45.9877 19.6919 45.0717 20.0839C40.7803 21.9204 39.1049 23.5245 37.8131 24.2203C37.0661 24.6227 37.0866 25.7362 37.9858 26.0712C42.1057 27.6065 45.7103 26.8493 46.4037 27.2231C46.0157 27.6369 45.4911 27.6739 44.9952 27.7304C41.4793 28.1313 38.0519 27.7325 34.7837 26.3712C33.9456 26.0221 33.2149 26.1731 32.4397 26.3187C31.4307 26.5081 26.996 26.8569 23.0568 26.7331C19.7327 26.6285 19.2697 26.221 19.0234 26.3937C18.8329 26.7405 19.8703 27.0569 19.0293 27.3795C19.3979 27.8406 19.7138 27.8777 20.2733 27.6085C22.6271 26.4763 24.9204 27.6603 26.4278 27.4203C26.5114 27.5414 26.4586 27.639 26.3807 27.6828C25.0601 28.4265 25.2119 30.2161 21.6879 29.6045C21.6763 29.6025 21.6627 29.6129 21.5979 29.6369C22.2989 30.6912 22.5377 33.4068 24.4391 33.2011C23.8715 33.8059 23.1563 34.0191 22.3347 33.9877C22.3128 34.2713 22.4755 34.4711 22.5616 34.6871C23.3279 36.6089 23.5907 38.1227 25.5771 38.0219C25.19 38.5329 24.729 38.8703 24.1357 39.0239C24.9263 40.3849 26.9312 41.7129 28.4906 39.9654C28.5937 40.1649 28.438 40.2885 28.3699 40.4401C27.4153 42.5652 25.478 41.929 24.4351 42.5613C24.3333 42.6231 24.2237 42.6891 24.1935 42.9057C25.1882 42.9683 25.1367 44.018 25.7029 44.5287C25.9497 44.7512 26.1274 45.0525 26.4577 45.2141C25.5938 45.5504 25.4201 45.6698 23.4955 44.9552C23.5315 45.0329 23.5419 45.1097 23.5851 45.1405C24.8403 46.037 24.2969 47.9425 25.0134 48.7977C25.0974 48.898 25.145 49.0376 25.4093 49.0321C24.6894 47.9221 24.8812 46.5491 24.0858 45.3661C24.6015 45.6079 25.0582 45.6728 25.5225 45.6743C26.0073 45.6759 26.4259 45.4812 26.9574 45.1936C25.6391 44.7684 25.4909 43.4749 24.7063 42.6855C26.0733 42.0567 25.6554 42.9591 26.9767 42.1287C27.3035 41.9233 27.6441 41.795 28.0474 41.818C30.9629 41.9844 37.73 40.4399 43.0717 41.4165C45.0663 41.7811 45.5919 42.1643 46.6649 41.7961C46.8812 41.7219 47.1062 41.6639 47.3861 41.758C46.5059 43.438 45.6596 43.4464 44.5259 43.1211C45.0742 44.6223 45.2885 46.1281 45.5267 47.6257C45.9481 50.2765 45.5109 51.3182 47.1279 54.5169C47.9445 56.1323 48.9751 57.1362 50.3238 57.931C50.0347 59.9889 50.8263 63.0181 51.5365 64.9882C52.3142 67.1457 52.7058 68.822 52.9375 69.124C53.5509 69.9233 52.3849 70.9007 51.5528 70.7747C51.156 70.714 51.3578 71.0987 51.4063 71.1327C52.267 71.7333 51.6991 72.3547 51.4321 72.9693C51.2523 73.3833 51.0241 73.5687 50.4853 73.504C48.2425 73.2373 47.1853 73.8273 47.6087 73.062C48.4466 71.5473 49.5044 70.9787 50.0623 69.6347C50.4002 68.8207 50.2141 68.022 50.025 67.236C48.7239 61.8269 47.7807 60.9665 46.8693 59.5955C46.1969 58.584 45.253 55.1871 41.5199 52.9135C39.9165 51.9369 39.8858 52.9311 39.4531 52.4653C38.8821 51.8503 38.1442 51.9075 37.405 51.9421C36.2091 51.998 35.1983 52.5376 34.2124 53.1431C33.8677 53.3547 33.4825 53.489 33.1606 53.7492C32.6107 54.1937 31.989 52.7715 26.3497 53.543C26.0849 53.5793 25.8107 53.548 25.5055 53.548C25.2417 54.4768 25.0953 55.4101 25.0173 56.3475C24.6425 60.8551 26.1233 61.2988 25.5594 63.2346C24.7537 66.0003 25.9237 69.584 25.9888 70.75C26.0161 71.24 25.7891 71.508 25.2952 71.5467C24.9426 71.574 24.9426 71.574 24.6796 71.748C25.0858 72.472 24.5173 72.998 24.2896 73.5993C24.2435 73.7213 24.1465 73.7433 24.0293 73.7513C23.0011 73.8187 21.9723 73.8493 20.9419 73.8253C20.8257 73.8227 20.7305 73.7853 20.6161 73.6513C21.1675 72.8873 21.5231 71.964 22.3427 71.3733C22.6234 71.1713 22.8119 70.9 22.9295 70.5647C24.0786 67.292 23.6203 66.2694 23.2966 64.7571C23.1688 64.1601 22.9835 63.5767 22.7207 63.0255C22.3385 62.2237 22.4809 61.3471 22.3455 60.5105C22.0738 58.8309 21.7845 56.1836 21.2518 54.7251C21.2208 54.6402 21.1781 54.5605 21.2351 54.4555C21.7157 53.57 21.9199 52.6075 21.9952 51.7119C22.2893 51.9681 22.6189 52.2753 22.9699 52.5559C23.3922 52.8934 23.9165 52.9575 24.1721 52.7083C22.7071 52.0967 24.0284 49.1994 23.2449 48.6171C23.4658 49.9244 22.9303 51.2415 23.5007 52.5339C22.6796 52.2908 22.3395 51.5671 21.8218 50.8971C21.8937 52.1061 21.6907 53.1825 21.1025 54.1501C20.5377 55.079 19.8484 55.9023 18.8533 56.4465C19.0711 55.9047 19.806 55.1987 18.8309 53.7691C18.1333 54.605 17.7245 55.7077 16.4625 56.1283C16.6277 55.7107 16.8731 55.5002 16.9366 55.1916C17.4672 52.6101 15.9701 51.3898 16.0445 49.9166C15.0811 50.7937 14.1345 51.4699 12.7219 51.3285C14.0878 50.3729 13.8387 49.1707 13.8387 46.5909C12.9864 47.0604 12.1493 47.5311 11.1423 46.9779C12.8853 46.3025 12.6252 44.3837 13.16 42.6451C12.4207 42.9354 11.7591 43.2376 11.0015 43.1469C11.0131 43.0854 11.0105 43.0433 11.0237 43.0375C12.6991 42.3023 12.7685 39.7862 13.3664 38.2892C12.5887 38.478 11.8727 38.7645 11.0172 38.4385C12.5379 38.1218 13.1109 37.0263 13.6093 35.8392C13.8384 35.2934 14.1439 34.7797 14.4343 34.213C13.3562 33.9258 12.2964 33.712 11.2218 34.0156C9.66333 34.4559 9.52639 33.8969 8.63813 32.5425C8.91139 32.3041 9.32093 32.4113 9.45633 32.0572C9.48913 31.9715 9.53993 31.8785 9.42106 31.8116C9.21299 32.1183 9.21299 32.1183 8.59533 32.2627C7.94773 31.4553 8.83799 31.9459 12.5037 29.6281C13.6532 28.9013 14.9621 27.906 16.0767 27.6444C17.4081 27.332 16.6401 26.6989 17.3091 26.6312C17.5009 26.6118 17.5583 26.4955 17.4903 26.3126C15.5421 25.8248 13.4639 27.3047 8.76466 27.2078C8.52706 27.2029 8.25899 27.2363 7.99719 26.9775C9.89559 26.8677 11.6989 26.6389 13.3421 25.7147ZM19.5663 29.2253C20.1862 28.6625 20.8737 28.3559 21.5532 28.0447C22.2585 27.7216 23.021 27.6519 23.8045 27.6671C22.9333 26.9859 19.5531 28.3853 19.5663 29.2253ZM16.3363 29.3631C15.8179 29.2009 15.4232 29.1033 14.9968 29.0947C14.6218 29.0871 14.548 29.2752 14.5913 29.5725C14.6161 29.7417 14.6445 29.9227 14.8148 30.0609C15.2797 29.8477 15.7523 29.6309 16.3363 29.3631ZM23.2227 48.0325C23.5501 48.7123 24.6207 49.2959 24.9915 48.9931C24.313 48.8196 23.7388 48.4873 23.2227 48.0325ZM23.1505 48.4818C23.1202 48.2813 23.0731 48.0904 22.8551 47.9229C22.8635 48.2039 22.9319 48.3818 23.1505 48.4818Z" fill="#242424"/>
<path d="M27.1195 73.772C27.3926 72.9127 27.9849 72.2993 28.495 71.634C28.6392 71.446 28.8638 71.408 29.0779 71.3827C30.5624 71.2033 28.8618 69.822 31.4961 68.3527C32.2836 67.914 32.648 67.1231 33.0124 66.3849C34.351 63.6732 35.2234 60.7899 35.7971 57.8342C36.685 53.26 35.398 52.9357 36.0156 52.5937C37.0327 52.0305 38.057 52.0086 39.0688 52.5753C39.9916 53.0921 40.4123 52.2318 41.09 53.0107C40.2185 54.2299 38.5588 56.3442 38.8981 58.5393C38.9022 58.5661 38.8985 58.5992 38.9128 58.6187C39.4488 59.3499 38.9388 59.7996 38.4739 60.2639C37.5161 61.2204 36.82 62.3539 36.1799 63.5391C33.4049 68.6767 34.3948 70.5513 32.3262 70.5453C32.0338 70.5447 31.705 70.6507 31.9119 70.9687C32.4934 71.8627 31.4804 72.608 31.3446 73.2747C31.2694 73.644 31.0214 73.806 30.7152 73.7607C29.4907 73.5793 28.1306 73.9513 27.1195 73.772Z" fill="#242424"/>
<path d="M16.1545 51.5652C16.6627 52.5081 16.8476 53.4643 16.8047 54.4715C16.7851 54.9322 16.7448 54.3109 12.7559 56.5925C11.4959 57.3132 10.8583 58.4739 10.7117 59.9087C10.6168 60.8372 10.3464 61.7447 11.2753 62.629C11.9201 63.2429 11.8709 63.9908 11.0987 64.4004C10.1916 64.8815 11.1703 65.72 11.4175 65.6477C12.1442 65.4352 12.5236 65.9819 12.9853 66.3553C13.1115 66.4574 13.1402 66.5434 13.0702 66.6999C11.7824 69.5807 11.8499 69.6653 11.5489 69.8047C10.9651 69.3313 10.6095 68.6647 10.0155 68.2247C9.60553 67.9207 10.3881 67.0173 9.1688 66.0517C7.09516 64.4096 8.74967 62.9441 9.46253 56.7531C9.59473 55.605 10.9953 55.0481 16.1545 51.5652Z" fill="#242424"/>
<path d="M10.8743 18.478C11.9966 20.6354 15.2474 23.162 18.4345 23.2579C19.6978 23.2959 20.9581 23.2843 22.2143 23.2053C23.9987 23.0931 25.6021 19.7599 22.6899 18.1775C21.6532 17.6142 20.6974 16.9312 19.9495 15.9873C19.2909 15.1561 18.8616 13.5606 19.6954 12.2439C19.6954 13.7921 19.5571 14.2278 21.1689 15.7989C22.4311 17.029 24.7116 17.4177 25.3353 19.6325C25.8045 21.2989 24.6721 22.4506 25.4641 22.7159C25.0047 23.4582 24.5575 24.0588 23.5867 24.1548C22.2781 24.2843 20.9765 24.4913 19.6579 24.495C19.2831 24.4961 19.3015 24.7997 19.1612 25.0416C17.7023 24.9015 17.5439 24.9117 17.4706 24.7982C17.0007 24.0703 16.2532 24.0341 15.5592 24.1797C14.3968 24.4235 13.5159 23.9003 12.5993 23.3481C13.3454 22.8671 13.3621 22.6014 12.7374 21.9113C11.9621 21.0549 11.2096 20.1801 10.8651 19.0429C10.8177 18.8861 10.6991 18.7233 10.8743 18.478Z" fill="#242424"/>
<path d="M41.7422 14.9603C41.5118 16.1448 41.6012 16.0963 41.1968 16.2824C40.237 16.7241 39.1863 16.9445 38.26 17.4566C37.483 17.8862 36.8521 18.5251 36.2131 19.1258C35.5207 19.7769 35.756 20.814 36.621 21.2666C37.0645 21.4987 37.5162 21.7149 37.9642 21.9381C36.9772 23.6659 35.4388 21.8991 33.1787 21.3733C33.392 20.7958 33.4244 20.1937 33.4301 19.588C33.4346 19.1082 34.9513 19.1759 37.3127 16.4153C37.9794 15.6359 38.3114 14.6057 38.6121 13.6264C39.0146 12.3155 40.0024 8.93561 39.9556 7.57374C39.9485 7.36961 40.0018 7.23734 40.1978 7.16667C40.8386 7.54561 40.158 12.6385 39.7284 13.9619C39.554 14.4993 39.9049 15.6652 41.2683 15.0053C41.4198 14.9319 41.5456 14.8373 41.7422 14.9603Z" fill="#242424"/>
<path d="M28.7612 9.79686C28.8519 10.357 28.8333 10.8145 28.9891 11.252C29.993 14.0719 32.6494 16.3827 31.1397 19.8831C31.0488 20.0938 30.9083 20.3247 31.0855 20.5345C31.2862 20.772 31.4713 20.4573 31.7262 20.4723C31.6272 21.0193 31.454 21.5331 31.195 22.0178C31.1616 22.0802 31.0699 22.1265 30.9956 22.1496C29.6899 22.5565 28.4181 23.0718 27.0212 23.4177C27.225 22.9411 27.4499 22.5318 27.5509 22.0767C27.6096 21.8121 28.9266 22.0186 30.026 19.2433C31.3592 15.8781 28.4307 14.0081 28.2541 10.976C28.2281 10.5302 28.4369 10.2082 28.7612 9.79686Z" fill="#242424"/>
<path d="M39.6962 23.3431C40.9587 22.388 41.1062 22.1354 42.0782 22.1477C43.9838 22.1719 46.753 21.2673 46.8819 21.1999C46.9802 21.1484 47.0658 21.1955 47.1155 21.2963C46.6729 22.1496 42.3704 23.7812 39.6962 23.3431Z" fill="#242424"/>
<path d="M46.7276 12.152C46.9697 12.9105 43.2506 15.3028 42.825 15.4553C42.7438 14.6093 42.837 14.5143 43.5952 14.1735C45.9832 13.1003 46.4788 12.1316 46.7276 12.152Z" fill="#242424"/>
<path d="M11.7385 24.2299C10.1792 24.0716 8.79684 23.6936 7.33337 23.2949C7.87504 23.0744 8.29677 23.3209 8.72417 23.3768C10.7536 23.6425 10.539 23.1148 11.7385 24.2299Z" fill="#242424"/>
<path d="M79.6608 56.8333C79.9094 56.8022 80.0808 56.5689 80.1741 56.1333C80.2674 55.6978 80.0961 54.9822 79.6608 53.9867C79.5048 53.5822 79.1781 52.8355 78.6808 51.7467C78.1828 50.6578 77.5914 49.3511 76.9074 47.8267C76.2541 46.3022 75.5381 44.7155 74.7608 43.0667C74.0141 41.3867 73.2828 39.7845 72.5674 38.26C71.8828 36.7045 71.2608 35.3511 70.7008 34.2C70.1408 33.0178 69.7361 32.1933 69.4874 31.7267C68.9581 30.7311 68.4761 30.0155 68.0408 29.58C67.6361 29.1133 67.3249 28.8645 67.1072 28.8333H77.7008C77.5141 28.8333 77.3894 29.0511 77.3274 29.4867C77.2648 29.9222 77.3894 30.6689 77.7008 31.7267C77.8561 32.1622 78.1048 32.8778 78.4474 33.8733C78.8208 34.8689 79.2561 36.0511 79.7541 37.42C80.2514 38.7578 80.7961 40.2045 81.3874 41.76C81.9781 43.2845 82.5694 44.8245 83.1608 46.38C83.7828 47.9355 84.3581 49.3978 84.8874 50.7667H84.9341C85.4628 49.3667 86.0381 47.8889 86.6608 46.3333C87.2828 44.7467 87.8894 43.1755 88.4808 41.62C89.0714 40.0645 89.6314 38.6178 90.1608 37.28C90.6894 35.9111 91.1408 34.7289 91.5141 33.7333C91.8874 32.7378 92.1361 32.0378 92.2608 31.6333C92.6028 30.6067 92.7428 29.8911 92.6808 29.4867C92.6181 29.0511 92.4781 28.8333 92.2608 28.8333H102.527C102.341 28.8333 102.045 29.0511 101.641 29.4867C101.267 29.8911 100.831 30.5911 100.334 31.5867C100.116 32.0222 99.7428 32.8155 99.2141 33.9667C98.6848 35.1178 98.0628 36.4711 97.3474 38.0267C96.6314 39.5511 95.8848 41.1533 95.1074 42.8333C94.3608 44.4822 93.6448 46.0845 92.9608 47.64C92.2761 49.1645 91.6694 50.5022 91.1408 51.6533C90.6428 52.7733 90.3008 53.5511 90.1141 53.9867C89.7094 54.9822 89.5381 55.6978 89.6008 56.1333C89.6941 56.5689 89.8648 56.8022 90.1141 56.8333H79.6608ZM119.921 57.3C117.463 57.3 115.41 57.0511 113.761 56.5533C112.143 56.0245 110.852 55.2778 109.887 54.3133C108.923 53.3178 108.239 52.12 107.834 50.72C107.43 49.32 107.227 47.7333 107.227 45.96C107.227 42.4445 108.207 39.66 110.167 37.6067C112.127 35.5533 115.13 34.5267 119.174 34.5267C121.539 34.5267 123.452 34.8533 124.914 35.5067C126.407 36.16 127.543 37.0311 128.321 38.12C129.099 39.2089 129.627 40.4222 129.907 41.76C130.219 43.0667 130.374 44.3889 130.374 45.7267V47.92C130.374 47.8267 129.939 47.7333 129.067 47.64C128.227 47.5155 126.797 47.4533 124.774 47.4533H113.947C113.947 49.1645 114.461 50.4555 115.487 51.3267C116.545 52.1667 118.257 52.5867 120.621 52.5867C122.612 52.5867 124.385 52.3533 125.941 51.8867C127.527 51.3889 128.679 50.9222 129.394 50.4867V51.8867L129.861 55.4333C129.27 55.8378 128.134 56.2578 126.454 56.6933C124.774 57.0978 122.597 57.3 119.921 57.3ZM115.674 43.44H123.747C123.747 42.7555 123.592 42.0867 123.281 41.4333C123.001 40.78 122.534 40.2511 121.881 39.8467C121.227 39.4111 120.325 39.1933 119.174 39.1933C118.023 39.1933 117.09 39.3645 116.374 39.7067C115.69 40.0489 115.177 40.4689 114.834 40.9667C114.523 41.4645 114.367 41.9778 114.367 42.5067C114.367 42.8178 114.461 43.0511 114.647 43.2067C114.834 43.3622 115.177 43.44 115.674 43.44ZM139.913 56.8333C140.131 56.8333 140.333 56.6155 140.52 56.18C140.738 55.7445 140.847 55.0289 140.847 54.0333V38.26C140.847 37.2645 140.738 36.5645 140.52 36.16C140.333 35.7245 140.131 35.4911 139.913 35.46C141.282 35.46 142.682 35.3667 144.113 35.18C145.545 34.9622 146.665 34.7445 147.473 34.5267V36.3933L147.38 37.1867L147.473 37.28C147.691 36.9378 148.033 36.5645 148.5 36.16C148.998 35.7245 149.62 35.3511 150.367 35.04C151.145 34.6978 152.047 34.5267 153.073 34.5267C154.598 34.5267 155.951 34.7445 157.133 35.18C158.315 35.5845 159.155 36.0045 159.653 36.44L158.253 42.6933V44.0933C157.787 43.44 157.149 42.7711 156.34 42.0867C155.562 41.4022 154.691 40.8267 153.727 40.36C152.793 39.8933 151.829 39.66 150.833 39.66C149.713 39.66 148.873 40.0645 148.313 40.8733C147.753 41.6822 147.473 42.9578 147.473 44.7V54.0333C147.473 55.0289 147.567 55.7445 147.753 56.18C147.971 56.6155 148.189 56.8333 148.407 56.8333H139.913ZM168.254 56.8333C168.472 56.8333 168.69 56.6155 168.907 56.18C169.125 55.7445 169.234 55.0289 169.234 54.0333V37.7933C169.234 36.7978 169.125 36.0822 168.907 35.6467C168.721 35.2111 168.519 34.9933 168.301 34.9933H175.861V54.0333C175.861 55.0289 175.954 55.7445 176.141 56.18C176.359 56.6155 176.577 56.8333 176.794 56.8333H168.254ZM172.034 31.4467C170.883 31.4467 169.965 31.1355 169.281 30.5133C168.597 29.8911 168.254 29.0355 168.254 27.9467C168.254 26.8578 168.581 26.0022 169.234 25.38C169.919 24.7578 170.852 24.4467 172.034 24.4467C173.217 24.4467 174.134 24.7578 174.787 25.38C175.472 26.0022 175.814 26.8578 175.814 27.9467C175.814 29.0355 175.472 29.8911 174.787 30.5133C174.134 31.1355 173.217 31.4467 172.034 31.4467ZM195.808 57.3C193.661 57.3 192.105 56.8489 191.141 55.9467C190.177 55.0133 189.695 53.5045 189.695 51.42V39.66H185.495V34.9933C186.925 34.9933 188.045 34.8222 188.855 34.48C189.663 34.1067 190.239 33.4689 190.581 32.5667C190.923 31.6645 191.095 30.4045 191.095 28.7867H196.321V34.9933H204.301C204.083 35.6155 203.865 36.3933 203.648 37.3267C203.461 38.2289 203.368 39.0067 203.368 39.66H196.321V48.8533C196.321 50.2845 196.43 51.2645 196.648 51.7933C196.865 52.3222 197.379 52.5867 198.188 52.5867C198.717 52.5867 199.292 52.4 199.915 52.0267C200.568 51.6533 201.19 51.2022 201.781 50.6733C202.403 50.1133 202.917 49.5845 203.321 49.0867V50.5333L203.788 55.06C203.415 55.3711 202.855 55.7133 202.108 56.0867C201.361 56.4289 200.443 56.7089 199.355 56.9267C198.297 57.1755 197.115 57.3 195.808 57.3ZM221.41 57.3C218.61 57.3 216.37 56.7555 214.69 55.6667C213.041 54.5467 212.217 52.7578 212.217 50.3C212.217 48.5889 212.652 47.2045 213.523 46.1467C214.395 45.0889 215.577 44.3111 217.07 43.8133C218.595 43.2845 220.321 43.02 222.25 43.02C223.681 43.02 224.895 43.1445 225.89 43.3933C226.917 43.6422 227.741 43.9067 228.363 44.1867C228.985 44.4667 229.39 44.6689 229.577 44.7933C229.577 43.4867 229.437 42.4289 229.157 41.62C228.877 40.78 228.363 40.1733 227.617 39.8C226.901 39.3955 225.89 39.1933 224.583 39.1933C222.685 39.1933 221.005 39.38 219.543 39.7533C218.081 40.1267 216.883 40.5622 215.95 41.06C215.048 41.5578 214.425 41.9778 214.083 42.32V40.92L213.617 36.3467C213.835 36.2222 214.41 36.02 215.343 35.74C216.277 35.46 217.552 35.1955 219.17 34.9467C220.788 34.6667 222.717 34.5267 224.957 34.5267C228.037 34.5267 230.385 34.9778 232.003 35.88C233.621 36.7511 234.725 38.0111 235.317 39.66C235.939 41.3089 236.25 43.3 236.25 45.6333V54.0333C236.25 54.9045 236.343 55.5422 236.53 55.9467C236.748 56.32 236.965 56.6155 237.183 56.8333H229.623V55.8533L229.717 54.9667L229.623 54.8733C229.375 55.1533 229.017 55.4333 228.55 55.7133C228.083 55.9933 227.508 56.2578 226.823 56.5067C226.139 56.7245 225.345 56.9111 224.443 57.0667C223.541 57.2222 222.53 57.3 221.41 57.3ZM223.603 52.5867C224.91 52.5867 225.999 52.4933 226.87 52.3067C227.772 52.0889 228.457 51.8089 228.923 51.4667C229.39 51.0933 229.623 50.6578 229.623 50.16C229.623 49.4445 229.079 48.8533 227.99 48.3867C226.932 47.92 225.485 47.6867 223.65 47.6867C221.877 47.6867 220.617 47.9355 219.87 48.4333C219.155 48.9311 218.797 49.5533 218.797 50.3C218.797 51.2333 219.217 51.8555 220.057 52.1667C220.897 52.4467 222.079 52.5867 223.603 52.5867ZM258.337 57.3C255.567 57.3 253.234 57.1445 251.337 56.8333C249.439 56.5222 248.132 56.2111 247.417 55.9V54.5L246.437 49.9267C247.245 50.5178 248.754 51.1089 250.963 51.7C253.172 52.2911 255.879 52.5867 259.083 52.5867C260.047 52.5867 260.81 52.5245 261.37 52.4C261.961 52.2755 262.381 52.0733 262.63 51.7933C262.879 51.5133 263.003 51.1555 263.003 50.72C263.003 50.1911 262.801 49.7867 262.397 49.5067C262.023 49.2267 261.339 49.0089 260.343 48.8533C259.347 48.6667 257.901 48.4489 256.003 48.2C253.607 47.8889 251.71 47.4533 250.31 46.8933C248.91 46.3022 247.914 45.5555 247.323 44.6533C246.763 43.72 246.483 42.5845 246.483 41.2467C246.483 40.0022 246.779 38.8822 247.37 37.8867C247.992 36.86 249.05 36.0511 250.543 35.46C252.067 34.8378 254.183 34.5267 256.89 34.5267C259.441 34.5267 261.681 34.6822 263.61 34.9933C265.539 35.3045 266.923 35.6155 267.763 35.9267V37.3267L268.697 41.4333C267.981 40.9667 266.581 40.4845 264.497 39.9867C262.412 39.4889 259.767 39.24 256.563 39.24C255.319 39.24 254.432 39.3645 253.903 39.6133C253.374 39.8622 253.11 40.2978 253.11 40.92C253.11 41.2311 253.187 41.4955 253.343 41.7133C253.53 41.9311 253.872 42.1333 254.37 42.32C254.867 42.5067 255.583 42.6933 256.517 42.88C257.45 43.0355 258.679 43.2067 260.203 43.3933C262.847 43.7355 264.839 44.2178 266.177 44.84C267.514 45.4311 268.417 46.1778 268.883 47.08C269.35 47.9511 269.583 49.0089 269.583 50.2533C269.583 51.84 269.179 53.1622 268.37 54.22C267.592 55.2467 266.363 56.0245 264.683 56.5533C263.034 57.0511 260.919 57.3 258.337 57.3Z" fill="#242424"/>
</svg>
