<svg xmlns="http://www.w3.org/2000/svg" width="61" height="60" fill="none"><path fill="#242424" d="M40.667 5c-6.9 0-12.5 5.6-12.5 12.5s5.6 12.5 12.5 12.5 12.5-5.6 12.5-12.5S47.567 5 40.667 5m0 20a7.49 7.49 0 0 1-7.5-7.5c0-4.15 3.35-7.5 7.5-7.5s7.5 3.35 7.5 7.5-3.35 7.5-7.5 7.5m7.5 15h-5c0-3-1.875-5.7-4.675-6.75l-15.4-5.75H3.167V55h15v-3.6l17.5 4.85 20-6.25v-2.5c0-4.15-3.35-7.5-7.5-7.5m-35 10h-5V32.5h5zm22.425 1.025L18.167 46.25V32.5h4.025l14.55 5.425A2.225 2.225 0 0 1 38.167 40s-5-.125-5.75-.375l-5.95-1.975-1.575 4.75 5.95 1.975c1.275.425 2.6.625 3.95.625h13.375c.975 0 1.85.6 2.25 1.425z"/></svg>