<svg xmlns="http://www.w3.org/2000/svg" width="60" height="60" fill="none"><path fill="#242424" d="M5 27.4c-1.25-.7-1.625-2.225-.925-3.425l3.75-6.475c.275-.5.7-.85 1.175-1.05l19.575-11c.4-.3.9-.45 1.425-.45s1.025.15 1.425.45l19.75 11.1c.475.25.875.65 1.1 1.15L55.9 24c.7 1.2.275 2.725-.9 3.4l-2.5 1.45v12.4c0 .95-.525 1.775-1.325 2.2l-19.75 11.1c-.4.3-.9.45-1.425.45a2.36 2.36 0 0 1-1.425-.45l-19.75-11.1a2.48 2.48 0 0 1-1.325-2.2V27.4c-.75.425-1.7.45-2.5 0m25-17.025v16.75l14.9-8.375zm-17.5 29.4 15 8.45V31.45l-15-8.425zm35 0v-8.05L35 38.975c-.825.45-1.75.425-2.5.025v9.225zM34.625 33.4l15.7-9.075-1.45-2.525-15.7 9.075z"/></svg>