<svg xmlns="http://www.w3.org/2000/svg" width="61" height="60" fill="none"><path fill="#242424" d="M2.208 18.75h24.375l1.875 3.75H4.083zm2.5 7.5h24.375L30.958 30H6.583zm40.625 20a3.745 3.745 0 0 0 3.75-3.75 3.745 3.745 0 0 0-3.75-3.75 3.745 3.745 0 0 0-3.75 3.75 3.745 3.745 0 0 0 3.75 3.75m3.75-22.5h-6.25V30h11.15zm-28.75 22.5a3.745 3.745 0 0 0 3.75-3.75 3.745 3.745 0 0 0-3.75-3.75 3.745 3.745 0 0 0-3.75 3.75 3.745 3.745 0 0 0 3.75 3.75m30-26.25 7.5 10v12.5h-5c0 4.15-3.35 7.5-7.5 7.5a7.49 7.49 0 0 1-7.5-7.5h-10c0 4.15-3.375 7.5-7.5 7.5a7.49 7.49 0 0 1-7.5-7.5h-5v-8.75h5v3.75h1.9a7.53 7.53 0 0 1 5.6-2.5c2.225 0 4.225.975 5.6 2.5h11.9V15h-30c0-2.775 2.225-5 5-5h30v10z"/></svg>